<svg id="svg" fill="none" version="1.1" width="400" height="376.81159420289856" viewBox="0 0 400 376.81159420289856" xmlns="http://www.w3.org/2000/svg" xmlns:xlink="http://www.w3.org/1999/xlink"><g id="svgg"><path id="path0" d="M137.983 22.486 C 128.896 22.929,111.339 25.505,105.115 27.309 C 102.081 28.188,90.772 32.845,86.522 34.965 C 77.936 39.249,66.701 50.187,60.739 60.066 C 57.699 65.103,50.515 80.155,49.573 83.458 C 44.256 102.120,42.646 108.847,41.666 116.494 C 41.334 119.086,40.492 124.090,39.795 127.615 C 37.841 137.501,36.798 145.165,36.203 154.006 C 35.980 157.323,35.631 161.989,35.427 164.373 C 34.433 175.985,34.290 178.509,34.479 181.048 C 34.592 182.555,34.864 186.843,35.084 190.575 C 35.304 194.307,35.822 199.227,36.235 201.508 C 36.648 203.789,37.135 206.503,37.318 207.540 C 39.483 219.873,46.868 231.098,58.625 239.925 C 63.412 243.520,64.743 244.388,68.836 246.586 C 70.477 247.467,72.243 248.481,72.762 248.839 C 74.002 249.696,77.751 251.268,82.187 252.792 C 84.156 253.469,88.313 254.955,91.423 256.093 C 103.989 260.692,108.966 262.352,113.101 263.326 C 115.485 263.887,121.847 265.450,127.238 266.798 C 139.664 269.905,152.261 272.631,159.095 273.690 C 160.650 273.931,163.789 274.533,166.070 275.026 C 168.351 275.520,171.320 276.029,172.667 276.157 C 174.015 276.286,176.051 276.543,177.191 276.729 C 178.332 276.915,180.452 277.259,181.904 277.495 C 198.112 280.122,204.785 293.010,205.306 322.697 C 205.430 329.731,205.649 333.979,205.904 334.286 C 206.962 335.560,211.499 332.241,211.499 330.193 C 211.499 329.556,211.701 329.123,211.998 329.123 C 212.624 329.123,214.138 327.545,214.138 326.891 C 214.138 326.624,214.562 326.071,215.080 325.663 C 215.598 325.255,216.023 324.607,216.023 324.221 C 216.023 323.782,216.339 323.476,216.871 323.400 C 217.416 323.323,217.762 322.977,217.840 322.432 C 217.909 321.943,218.228 321.578,218.594 321.571 C 219.404 321.556,221.562 319.366,221.739 318.379 C 221.817 317.940,222.227 317.575,222.718 317.504 C 223.217 317.433,223.563 317.120,223.563 316.739 C 223.563 315.298,227.783 311.781,229.511 311.781 C 230.387 311.781,231.103 311.612,231.103 311.404 C 231.103 311.190,232.212 311.027,233.676 311.027 C 235.933 311.027,236.358 310.912,237.135 310.085 C 237.622 309.566,238.298 309.142,238.638 309.142 C 239.490 309.142,244.037 304.502,245.659 301.979 C 246.392 300.839,248.348 297.615,250.006 294.816 C 255.872 284.913,259.406 282.738,276.633 278.426 C 282.380 276.988,284.006 276.324,289.910 273.009 C 302.729 265.811,310.223 255.593,320.091 231.857 C 321.083 229.472,322.760 225.512,323.819 223.056 C 324.878 220.600,326.444 216.443,327.299 213.819 C 328.153 211.195,329.528 207.352,330.354 205.278 C 332.231 200.567,333.235 197.455,335.342 189.821 C 336.257 186.503,337.699 181.771,338.546 179.305 C 340.000 175.068,340.492 172.897,342.356 162.488 C 342.783 160.104,343.554 156.287,344.069 154.006 C 346.991 141.068,347.816 135.442,348.382 124.599 C 349.016 112.442,348.898 105.122,347.980 99.753 C 346.963 93.804,345.356 86.293,344.929 85.491 C 344.737 85.130,344.581 84.611,344.581 84.337 C 344.581 81.495,338.340 70.140,335.002 66.908 C 327.485 59.631,312.834 50.824,303.673 48.074 C 301.808 47.515,297.059 45.980,293.120 44.663 C 286.682 42.511,281.025 41.003,272.008 39.036 C 270.349 38.674,266.277 37.727,262.959 36.932 C 253.711 34.716,250.097 34.021,244.425 33.370 C 241.556 33.041,236.833 32.362,233.930 31.860 C 231.027 31.359,226.616 30.603,224.128 30.181 C 221.640 29.759,218.671 29.243,217.531 29.035 C 206.743 27.068,202.082 26.477,189.255 25.451 C 185.212 25.128,178.172 24.531,173.610 24.125 C 159.694 22.886,144.303 22.178,137.983 22.486 M142.790 30.636 C 143.049 30.840,147.715 31.144,153.157 31.312 C 158.600 31.480,164.496 31.790,166.258 32.000 C 168.021 32.210,170.990 32.482,172.856 32.604 C 174.722 32.726,177.861 33.171,179.830 33.594 C 181.800 34.016,184.769 34.604,186.428 34.901 C 188.087 35.198,189.868 35.597,190.386 35.789 C 191.767 36.300,193.966 36.535,201.196 36.944 C 204.757 37.146,208.404 37.485,209.301 37.699 C 210.199 37.912,212.701 38.432,214.862 38.854 C 217.024 39.276,218.929 39.706,219.096 39.809 C 219.457 40.032,224.476 41.123,225.825 41.271 C 226.343 41.328,227.191 41.468,227.710 41.582 C 228.228 41.695,230.179 41.982,232.045 42.219 C 233.911 42.457,237.729 43.049,240.528 43.536 C 243.327 44.022,246.975 44.626,248.633 44.878 C 251.638 45.333,252.163 45.463,258.247 47.250 C 263.501 48.795,265.804 49.331,269.180 49.798 C 270.943 50.042,272.554 50.374,272.762 50.536 C 272.969 50.698,274.496 51.098,276.155 51.425 C 280.370 52.255,281.465 52.566,284.260 53.723 C 285.608 54.281,287.220 54.876,287.842 55.046 C 288.464 55.216,289.906 55.723,291.046 56.173 C 292.187 56.624,293.630 57.120,294.253 57.277 C 294.877 57.433,295.725 57.737,296.138 57.952 C 297.279 58.545,299.485 59.189,300.379 59.189 C 300.818 59.189,301.654 59.392,302.237 59.640 C 302.821 59.888,303.480 60.103,303.702 60.118 C 304.168 60.149,307.176 61.368,308.011 61.864 C 308.322 62.049,309.680 62.779,311.027 63.486 C 312.375 64.194,313.976 65.298,314.585 65.940 C 315.194 66.581,315.875 67.107,316.098 67.107 C 316.321 67.107,316.671 67.483,316.876 67.942 C 317.080 68.402,317.636 68.869,318.109 68.979 L 318.971 69.180 318.139 69.891 C 317.215 70.682,314.360 70.883,314.123 70.174 C 314.045 69.938,313.613 69.744,313.164 69.743 C 312.714 69.742,311.861 69.487,311.267 69.178 C 310.673 68.868,309.723 68.615,309.155 68.615 C 308.588 68.615,307.326 68.190,306.351 67.672 C 305.376 67.154,304.157 66.730,303.643 66.730 C 302.599 66.730,296.714 64.905,296.155 64.409 C 295.958 64.234,295.439 64.090,295.001 64.090 C 294.564 64.090,293.877 63.841,293.475 63.537 C 293.072 63.233,292.286 62.978,291.728 62.971 C 291.170 62.965,290.615 62.800,290.494 62.604 C 290.373 62.409,289.473 62.133,288.493 61.991 C 287.513 61.849,286.541 61.608,286.334 61.455 C 286.126 61.302,284.942 61.063,283.702 60.924 C 282.462 60.784,281.099 60.442,280.673 60.163 C 280.248 59.884,278.633 59.374,277.084 59.030 C 275.536 58.686,273.761 58.236,273.139 58.031 C 272.516 57.826,270.687 57.553,269.073 57.425 C 267.459 57.296,266.049 57.047,265.940 56.871 C 265.832 56.694,265.000 56.550,264.093 56.550 C 263.185 56.550,261.965 56.356,261.382 56.118 C 259.200 55.230,241.203 54.255,240.742 55.001 C 240.600 55.231,240.005 55.419,239.421 55.419 C 238.836 55.419,238.147 55.674,237.889 55.985 C 237.631 56.296,236.846 56.550,236.146 56.550 C 235.446 56.550,234.873 56.709,234.873 56.904 C 234.873 57.098,234.321 57.310,233.648 57.375 C 232.819 57.455,232.305 57.760,232.060 58.318 C 231.861 58.772,231.437 59.241,231.118 59.361 C 228.712 60.263,228.532 61.451,230.801 61.451 C 231.382 61.451,231.857 61.621,231.857 61.828 C 231.857 62.036,231.512 62.205,231.091 62.205 C 230.670 62.205,230.227 62.460,230.108 62.771 C 229.989 63.082,229.590 63.336,229.221 63.336 C 228.853 63.336,228.463 63.676,228.354 64.090 C 228.217 64.618,227.835 64.848,227.085 64.855 C 226.404 64.862,225.613 65.274,224.914 65.986 C 224.309 66.602,223.588 67.107,223.311 67.107 C 223.035 67.107,222.809 67.276,222.809 67.484 C 222.809 67.691,222.554 67.861,222.243 67.861 C 221.850 67.861,221.678 68.255,221.678 69.153 C 221.678 70.066,221.414 70.653,220.777 71.153 C 220.281 71.543,219.813 72.192,219.736 72.595 C 219.657 73.009,219.230 73.379,218.752 73.448 C 218.288 73.514,217.908 73.726,217.908 73.919 C 217.908 74.112,217.439 74.270,216.867 74.270 C 216.270 74.270,215.378 74.685,214.776 75.244 C 213.934 76.024,213.618 76.128,213.184 75.768 C 212.744 75.403,212.574 75.498,212.278 76.277 C 212.006 76.991,211.597 77.265,210.669 77.355 C 209.711 77.447,209.397 77.669,209.305 78.322 C 209.237 78.799,208.919 79.171,208.580 79.171 C 207.754 79.171,206.598 80.277,206.598 81.068 C 206.598 81.425,206.343 81.928,206.032 82.187 C 205.258 82.829,205.270 86.078,206.048 86.724 C 206.368 86.990,206.577 87.477,206.512 87.807 C 206.381 88.478,207.764 89.343,208.997 89.362 C 209.933 89.376,211.122 90.183,211.122 90.805 C 211.122 91.385,210.470 91.353,210.272 90.763 C 210.151 90.404,209.949 90.427,209.425 90.858 C 208.901 91.289,208.699 91.311,208.578 90.952 C 208.391 90.395,206.598 90.309,206.598 90.858 C 206.598 91.350,202.190 91.350,201.885 90.858 C 201.757 90.650,200.941 90.483,200.072 90.486 C 198.913 90.491,198.643 90.590,199.057 90.858 C 200.144 91.560,188.553 91.292,183.083 90.488 C 180.288 90.077,175.910 89.489,173.355 89.180 C 168.290 88.569,159.637 87.298,156.645 86.725 C 154.232 86.263,146.171 85.278,142.507 84.998 C 137.689 84.629,130.404 83.745,127.050 83.121 C 122.362 82.248,113.266 83.309,110.569 85.043 C 110.110 85.338,109.478 85.580,109.165 85.580 C 108.231 85.580,103.398 89.989,102.324 91.822 C 99.895 95.965,98.655 107.324,100.418 109.272 C 101.752 110.746,99.693 112.070,98.110 110.757 C 97.747 110.455,97.493 110.461,97.175 110.779 C 96.935 111.019,96.274 111.216,95.706 111.216 C 95.137 111.216,94.583 111.360,94.474 111.536 C 94.366 111.712,92.885 111.963,91.185 112.094 C 88.827 112.276,87.902 112.513,87.284 113.094 C 86.691 113.650,85.961 113.855,84.565 113.855 C 83.328 113.855,82.491 114.054,82.187 114.420 C 81.928 114.731,81.399 114.986,81.009 114.986 C 80.620 114.986,80.302 115.134,80.302 115.314 C 80.302 115.495,79.460 115.754,78.432 115.891 C 77.404 116.027,76.461 116.303,76.336 116.505 C 76.212 116.706,75.694 116.871,75.185 116.871 C 74.251 116.871,73.114 117.380,71.929 118.329 C 71.574 118.613,70.625 118.836,69.819 118.825 C 68.519 118.807,68.105 119.057,66.140 121.042 C 64.922 122.273,63.751 123.286,63.537 123.292 C 62.876 123.314,61.540 124.616,61.394 125.381 C 61.316 125.790,60.886 126.160,60.411 126.228 C 59.946 126.294,59.566 126.506,59.566 126.699 C 59.566 126.892,59.297 127.050,58.968 127.050 C 58.216 127.050,55.912 129.171,55.203 130.517 C 54.908 131.076,54.243 131.991,53.724 132.551 C 53.205 133.111,52.780 133.750,52.780 133.971 C 52.780 134.192,52.069 135.097,51.200 135.983 C 49.532 137.682,48.256 137.544,48.256 135.663 C 48.256 135.280,48.065 134.967,47.832 134.967 C 47.324 134.967,47.576 129.859,48.407 123.280 C 48.709 120.895,49.064 117.842,49.196 116.494 C 49.328 115.146,49.930 111.923,50.534 109.331 C 51.138 106.739,52.238 101.649,52.980 98.021 C 55.351 86.417,55.918 84.579,59.090 78.209 C 60.323 75.731,61.984 72.092,62.780 70.123 C 64.359 66.214,65.226 64.678,69.058 59.001 C 74.854 50.414,80.849 45.198,90.300 40.518 C 93.850 38.761,96.912 37.322,97.105 37.321 C 97.297 37.320,97.964 37.045,98.586 36.710 C 99.208 36.375,100.226 35.961,100.848 35.789 C 101.470 35.617,103.676 34.865,105.749 34.118 C 110.194 32.517,115.240 31.476,120.422 31.092 C 122.478 30.940,124.599 30.677,125.134 30.508 C 126.522 30.069,142.215 30.183,142.790 30.636 M134.115 89.726 C 144.265 90.753,147.647 91.172,152.498 92.004 C 154.779 92.395,160.547 93.241,165.316 93.884 C 186.314 96.714,203.380 99.269,208.277 100.315 C 211.189 100.937,215.862 101.777,218.662 102.181 C 230.739 103.923,234.383 104.549,246.079 106.896 C 269.395 111.575,277.093 114.134,281.606 118.709 C 287.030 124.206,285.870 132.003,279.216 134.784 C 275.879 136.178,270.643 135.886,261.494 133.795 C 258.775 133.174,252.733 131.902,248.068 130.968 C 243.402 130.035,235.683 128.271,230.914 127.048 C 226.145 125.826,219.953 124.402,217.154 123.885 C 214.354 123.368,209.350 122.429,206.032 121.798 C 200.761 120.796,197.443 120.183,189.444 118.733 C 185.910 118.093,179.269 116.823,177.757 116.498 C 176.927 116.320,175.231 116.070,173.987 115.942 C 172.743 115.814,170.707 115.549,169.463 115.354 C 160.443 113.941,154.508 112.933,150.613 112.151 C 148.124 111.651,142.187 110.812,137.418 110.285 C 112.348 107.515,107.072 105.514,107.072 98.775 C 107.072 90.637,115.441 87.837,134.115 89.726 M237.430 90.669 C 237.989 91.188,238.660 91.612,238.922 91.612 C 239.213 91.612,239.397 92.121,239.397 92.931 C 239.397 93.957,239.244 94.251,238.709 94.251 C 238.330 94.251,237.622 94.675,237.135 95.193 C 236.535 95.832,235.845 96.136,234.996 96.136 C 234.306 96.136,233.742 96.263,233.742 96.418 C 233.743 97.068,225.667 96.041,225.231 95.337 C 225.119 95.154,224.556 95.005,223.980 95.005 C 223.405 95.005,222.840 94.910,222.724 94.794 C 222.344 94.415,222.885 93.120,223.423 93.120 C 223.713 93.120,224.287 92.950,224.699 92.743 C 225.111 92.535,225.785 92.196,226.197 91.989 C 226.608 91.781,227.351 91.612,227.847 91.612 C 228.343 91.612,228.960 91.357,229.218 91.046 C 229.562 90.632,230.474 90.481,232.635 90.481 C 234.256 90.481,235.687 90.311,235.815 90.104 C 236.148 89.565,236.295 89.616,237.430 90.669 M134.790 118.397 C 134.924 118.614,135.316 118.764,135.660 118.731 C 136.906 118.608,140.040 118.848,139.397 119.016 C 139.034 119.111,138.737 119.536,138.737 119.962 C 138.737 120.618,138.568 120.701,137.621 120.512 C 137.007 120.389,136.423 120.420,136.324 120.580 C 136.090 120.959,133.515 120.660,133.245 120.222 C 133.131 120.038,133.556 119.887,134.191 119.887 C 134.825 119.887,135.344 119.753,135.344 119.589 C 135.344 119.426,134.962 119.289,134.496 119.285 C 131.414 119.259,130.569 119.105,130.569 118.567 C 130.569 117.894,134.384 117.740,134.790 118.397 M160.703 122.208 C 161.166 122.447,161.800 122.791,162.111 122.972 C 162.422 123.154,162.974 123.402,163.336 123.523 C 163.699 123.645,163.996 123.895,163.996 124.078 C 163.996 124.578,163.083 124.480,161.872 123.848 C 161.278 123.538,160.505 123.284,160.154 123.282 C 159.804 123.281,159.412 123.110,159.284 122.903 C 159.156 122.696,158.679 122.523,158.225 122.520 C 157.770 122.517,157.144 122.350,156.833 122.149 C 155.994 121.606,159.646 121.662,160.703 122.208 M151.744 122.903 C 151.876 123.118,151.552 123.280,150.990 123.280 C 150.428 123.280,150.103 123.118,150.236 122.903 C 150.364 122.696,150.703 122.526,150.990 122.526 C 151.276 122.526,151.615 122.696,151.744 122.903 M111.136 140.641 C 113.150 140.859,118.190 141.617,122.337 142.326 C 129.868 143.614,133.794 144.206,142.319 145.337 C 146.440 145.884,151.096 146.619,179.265 151.171 C 184.241 151.975,189.585 152.816,191.140 153.038 C 192.696 153.261,196.343 153.781,199.246 154.194 C 205.094 155.026,205.497 155.094,216.177 157.014 C 220.305 157.756,224.716 158.606,225.979 158.902 C 229.684 159.772,235.121 160.893,239.774 161.746 C 250.266 163.668,252.245 164.108,255.937 165.340 C 268.415 169.504,273.942 176.250,269.840 182.309 C 265.790 188.289,253.567 189.631,237.323 185.879 C 235.457 185.448,230.622 184.497,226.579 183.766 C 218.852 182.368,212.210 181.027,208.106 180.037 C 205.942 179.515,199.676 178.313,190.198 176.600 C 188.539 176.300,184.875 175.463,182.056 174.739 C 179.237 174.016,174.826 172.978,172.254 172.432 C 169.682 171.887,164.609 170.810,160.980 170.040 C 150.113 167.735,140.643 165.924,137.041 165.464 C 135.174 165.226,131.951 164.699,129.877 164.294 C 125.008 163.342,119.307 162.318,115.740 161.755 C 108.904 160.677,101.072 158.967,99.295 158.167 C 88.832 153.451,92.310 142.268,104.739 140.665 C 106.124 140.487,107.306 140.319,107.366 140.293 C 107.426 140.267,109.123 140.423,111.136 140.641 M128.369 173.044 C 128.498 173.252,128.932 173.421,129.334 173.421 C 129.737 173.421,130.066 173.591,130.066 173.798 C 130.066 174.287,129.558 174.274,127.659 173.735 C 125.509 173.124,125.126 172.667,126.764 172.667 C 127.519 172.667,128.241 172.837,128.369 173.044 M104.053 194.326 C 106.590 194.793,114.478 196.174,138.737 200.398 C 142.988 201.138,148.841 202.319,151.744 203.021 C 154.647 203.724,158.993 204.716,161.402 205.225 C 178.220 208.783,179.865 223.370,163.619 224.885 C 161.274 225.104,158.825 224.860,148.539 223.387 C 136.609 221.678,110.849 216.552,106.589 215.040 C 105.712 214.729,102.554 213.966,99.570 213.343 C 88.986 211.136,84.237 207.508,84.966 202.187 C 85.880 195.515,93.487 192.382,104.053 194.326 " stroke="none" fill="#ec9d09" fill-rule="evenodd"></path><path id="path2" d="M352.110 79.990 C 352.704 81.094,353.867 84.034,354.695 86.522 C 355.522 89.010,356.736 92.488,357.391 94.251 C 359.483 99.875,360.059 103.652,360.296 113.289 C 360.634 127.028,359.952 134.532,357.231 147.031 C 356.486 150.452,355.201 157.493,354.375 162.677 C 352.552 174.120,352.479 174.453,350.238 181.527 C 349.253 184.637,348.094 188.709,347.661 190.575 C 345.297 200.788,344.410 204.107,343.181 207.352 C 341.026 213.037,340.802 213.701,339.463 218.361 C 338.172 222.857,337.069 225.844,333.690 233.994 C 332.644 236.518,331.259 240.165,330.612 242.100 C 329.044 246.791,322.024 260.970,320.098 263.336 C 319.254 264.373,317.550 266.522,316.311 268.111 C 315.072 269.700,312.317 272.576,310.187 274.502 C 308.057 276.428,305.412 278.860,304.308 279.907 C 303.204 280.953,301.837 282.064,301.272 282.375 C 300.706 282.686,299.488 283.469,298.566 284.116 C 294.715 286.815,281.076 291.423,276.937 291.423 C 276.428 291.423,274.771 291.859,273.255 292.393 C 266.701 294.699,264.519 296.217,261.675 300.449 C 260.761 301.809,259.594 303.346,259.082 303.864 C 258.003 304.956,254.634 309.739,253.539 311.735 C 252.781 313.115,239.833 326.370,236.004 329.685 C 234.863 330.672,232.313 333.034,230.336 334.933 C 222.463 342.494,205.267 351.174,199.681 350.406 C 195.103 349.776,194.457 347.308,196.401 337.872 C 199.428 323.182,199.257 306.398,196.012 299.529 C 192.330 291.733,186.761 288.536,175.306 287.641 C 172.507 287.422,168.520 286.834,166.447 286.334 C 157.009 284.059,151.546 282.965,145.712 282.184 C 143.431 281.878,137.578 280.609,132.705 279.362 C 127.832 278.116,120.792 276.345,117.059 275.426 C 108.926 273.424,102.981 271.656,96.136 269.203 C 93.336 268.200,89.859 266.998,88.407 266.531 C 85.108 265.471,81.223 263.945,78.040 262.460 C 76.692 261.831,74.317 260.776,72.762 260.115 C 66.006 257.245,62.472 255.289,56.550 251.144 C 46.445 244.069,39.517 235.054,35.224 223.389 C 33.682 219.199,33.531 219.606,35.011 223.963 C 37.726 231.955,41.497 238.583,46.183 243.601 C 54.182 252.167,65.440 259.355,75.686 262.438 C 76.362 262.642,78.601 263.652,80.662 264.684 C 82.723 265.716,86.582 267.248,89.236 268.087 C 91.890 268.927,96.607 270.619,99.717 271.848 C 105.965 274.315,108.723 275.147,114.609 276.340 C 119.790 277.390,121.061 277.697,126.673 279.253 C 133.038 281.019,138.646 282.204,151.367 284.470 C 151.989 284.580,154.194 285.186,156.268 285.816 C 165.558 288.636,166.893 288.936,172.856 289.538 C 174.929 289.747,177.274 289.999,178.066 290.098 C 186.859 291.193,195.861 300.009,196.631 308.279 C 196.743 309.479,196.913 310.841,197.009 311.304 C 197.178 312.119,196.586 323.995,196.223 327.050 C 195.741 331.118,195.583 332.158,195.048 334.779 C 194.731 336.334,193.974 339.120,193.366 340.970 C 189.551 352.586,193.233 356.177,206.409 353.687 C 213.350 352.376,229.974 344.651,232.799 341.425 C 233.007 341.188,233.770 340.512,234.496 339.923 C 235.221 339.334,236.579 338.139,237.512 337.268 C 238.445 336.397,240.650 334.647,242.413 333.379 C 246.231 330.631,247.713 329.132,250.391 325.308 C 251.498 323.728,254.117 320.250,256.212 317.579 C 258.307 314.909,261.271 310.859,262.799 308.579 C 267.852 301.042,270.548 298.879,278.480 295.996 C 299.658 288.300,301.717 287.167,313.465 276.743 C 318.534 272.246,330.507 252.529,332.891 244.753 C 333.829 241.694,336.058 235.673,337.401 232.571 C 338.244 230.623,339.875 225.721,341.026 221.678 C 342.177 217.634,343.945 211.781,344.954 208.671 C 347.092 202.083,347.587 200.201,348.904 193.648 C 349.440 190.985,350.450 186.998,351.149 184.789 C 353.499 177.365,353.954 175.519,354.924 169.463 C 357.548 153.080,358.233 149.064,359.267 144.015 C 363.006 125.745,362.577 104.330,358.261 93.874 C 357.534 92.111,356.350 88.984,355.631 86.924 C 354.172 82.745,352.478 79.183,351.606 78.459 C 351.290 78.196,351.516 78.885,352.110 79.990 " stroke="none" fill="#9b480c" fill-rule="evenodd"></path><path id="path3" d="M208.860 27.536 C 209.793 27.741,212.168 28.167,214.138 28.482 C 216.107 28.798,219.076 29.284,220.735 29.563 C 223.471 30.023,224.860 30.059,223.522 29.634 C 222.587 29.338,216.621 27.915,215.457 27.711 C 213.076 27.293,207.025 27.133,208.860 27.536 M254.477 34.957 C 254.995 35.050,258.513 35.875,262.293 36.790 C 269.491 38.533,270.122 38.652,269.150 38.083 C 266.832 36.727,258.016 34.636,255.042 34.736 C 254.012 34.771,253.833 34.841,254.477 34.957 M282.752 41.492 C 285.137 42.109,290.057 43.616,293.685 44.840 C 297.314 46.064,301.808 47.522,303.673 48.079 C 312.811 50.809,327.478 59.624,335.002 66.908 C 338.340 70.140,344.581 81.495,344.581 84.337 C 344.581 84.611,344.737 85.130,344.929 85.491 C 345.356 86.293,346.963 93.804,347.980 99.753 C 348.898 105.122,349.016 112.442,348.382 124.599 C 347.816 135.442,346.991 141.068,344.069 154.006 C 343.554 156.287,342.783 160.104,342.356 162.488 C 340.492 172.897,340.000 175.068,338.546 179.305 C 337.699 181.771,336.257 186.503,335.342 189.821 C 333.235 197.455,332.231 200.567,330.354 205.278 C 329.528 207.352,328.153 211.195,327.299 213.819 C 326.444 216.443,324.878 220.600,323.819 223.056 C 322.760 225.512,321.083 229.472,320.091 231.857 C 310.223 255.593,302.729 265.811,289.910 273.009 C 284.006 276.324,282.380 276.988,276.633 278.426 C 259.406 282.738,255.872 284.913,250.006 294.816 C 248.348 297.615,246.392 300.839,245.659 301.979 C 244.037 304.502,239.490 309.142,238.638 309.142 C 238.298 309.142,237.622 309.566,237.135 310.085 C 236.358 310.912,235.933 311.027,233.676 311.027 C 232.212 311.027,231.103 311.190,231.103 311.404 C 231.103 311.612,230.387 311.781,229.511 311.781 C 227.783 311.781,223.563 315.298,223.563 316.739 C 223.563 317.120,223.217 317.433,222.718 317.504 C 222.227 317.575,221.817 317.940,221.739 318.379 C 221.562 319.366,219.404 321.556,218.594 321.571 C 218.228 321.578,217.909 321.943,217.840 322.432 C 217.762 322.977,217.416 323.323,216.871 323.400 C 216.339 323.476,216.023 323.782,216.023 324.221 C 216.023 324.607,215.598 325.255,215.080 325.663 C 214.562 326.071,214.138 326.647,214.138 326.944 C 214.138 327.582,212.587 329.123,211.946 329.123 C 211.700 329.123,211.499 329.605,211.499 330.193 C 211.499 332.241,206.962 335.560,205.904 334.286 C 205.649 333.979,205.430 329.731,205.306 322.697 C 204.785 293.010,198.112 280.122,181.904 277.495 C 180.452 277.259,178.332 276.915,177.191 276.729 C 176.051 276.543,174.015 276.286,172.667 276.157 C 171.320 276.029,168.351 275.520,166.070 275.026 C 163.789 274.533,160.650 273.931,159.095 273.690 C 152.261 272.631,139.664 269.905,127.238 266.798 C 121.847 265.450,115.485 263.887,113.101 263.326 C 108.966 262.352,103.989 260.692,91.423 256.093 C 88.313 254.955,84.156 253.469,82.187 252.792 C 77.751 251.268,74.002 249.696,72.762 248.839 C 72.243 248.481,70.477 247.467,68.836 246.586 C 64.743 244.388,63.412 243.520,58.625 239.925 C 49.586 233.139,43.486 225.387,39.457 215.567 C 38.775 213.907,37.779 210.168,37.318 207.540 C 37.135 206.503,36.648 203.789,36.235 201.508 C 35.822 199.227,35.304 194.307,35.084 190.575 C 34.864 186.843,34.592 182.555,34.479 181.048 C 34.290 178.509,34.433 175.985,35.427 164.373 C 35.631 161.989,35.980 157.323,36.203 154.006 C 36.798 145.165,37.841 137.501,39.795 127.615 C 40.492 124.090,41.334 119.086,41.666 116.494 C 42.381 110.920,43.989 103.326,45.826 96.846 C 47.673 90.330,47.668 90.372,46.243 93.308 C 43.875 98.187,42.777 102.145,42.035 108.483 C 41.617 112.049,41.442 113.316,41.290 113.855 C 41.203 114.166,41.024 115.180,40.893 116.109 C 40.761 117.038,40.577 117.923,40.482 118.076 C 40.388 118.228,40.242 119.012,40.158 119.818 C 39.988 121.454,38.443 127.143,37.348 130.165 C 35.147 136.241,34.346 140.642,33.557 150.990 C 32.883 159.827,32.466 162.863,31.513 165.849 C 27.891 177.199,29.840 208.555,35.056 222.865 C 39.502 235.059,46.242 243.928,56.550 251.144 C 62.472 255.289,66.006 257.245,72.762 260.115 C 74.317 260.776,76.692 261.831,78.040 262.460 C 81.223 263.945,85.108 265.471,88.407 266.531 C 89.859 266.998,93.336 268.200,96.136 269.203 C 102.981 271.656,108.926 273.424,117.059 275.426 C 120.792 276.345,127.832 278.116,132.705 279.362 C 137.578 280.609,143.431 281.878,145.712 282.184 C 151.546 282.965,157.009 284.059,166.447 286.334 C 168.520 286.834,172.507 287.422,175.306 287.641 C 186.761 288.536,192.330 291.733,196.012 299.529 C 199.257 306.398,199.428 323.182,196.401 337.872 C 194.457 347.308,195.103 349.776,199.681 350.406 C 205.267 351.174,222.463 342.494,230.336 334.933 C 232.313 333.034,234.863 330.672,236.004 329.685 C 239.833 326.370,252.781 313.115,253.539 311.735 C 254.634 309.739,258.003 304.956,259.082 303.864 C 259.594 303.346,260.761 301.809,261.675 300.449 C 264.519 296.217,266.701 294.699,273.255 292.393 C 274.771 291.859,276.428 291.423,276.937 291.423 C 281.076 291.423,294.715 286.815,298.566 284.116 C 299.488 283.469,300.706 282.686,301.272 282.375 C 301.837 282.064,303.204 280.953,304.308 279.907 C 305.412 278.860,308.057 276.428,310.187 274.502 C 312.317 272.576,315.072 269.700,316.311 268.111 C 317.550 266.522,319.254 264.373,320.098 263.336 C 322.024 260.970,329.044 246.791,330.612 242.100 C 331.259 240.165,332.644 236.518,333.690 233.994 C 337.069 225.844,338.172 222.857,339.463 218.361 C 340.802 213.701,341.026 213.037,343.181 207.352 C 344.410 204.107,345.297 200.788,347.661 190.575 C 348.094 188.709,349.253 184.637,350.238 181.527 C 352.479 174.453,352.552 174.120,354.375 162.677 C 355.201 157.493,356.486 150.452,357.231 147.031 C 361.566 127.118,361.632 105.672,357.394 94.251 C 356.740 92.488,355.485 88.911,354.606 86.301 C 351.272 76.402,342.788 66.122,333.082 60.222 C 331.838 59.466,329.887 58.074,328.746 57.130 C 327.394 56.010,325.230 54.815,322.526 53.695 C 320.245 52.751,318.040 51.830,317.625 51.648 C 311.869 49.127,309.620 48.328,306.503 47.695 C 305.375 47.466,301.651 46.306,294.862 44.067 C 288.961 42.121,281.198 40.300,279.031 40.355 C 278.693 40.363,280.368 40.875,282.752 41.492 M51.838 76.532 C 51.313 77.568,51.022 78.417,51.191 78.417 C 51.361 78.417,51.858 77.568,52.296 76.532 C 52.734 75.495,53.025 74.647,52.943 74.647 C 52.860 74.647,52.363 75.495,51.838 76.532 M116.718 89.592 C 110.671 90.889,107.072 94.315,107.072 98.775 C 107.072 105.514,112.348 107.515,137.418 110.285 C 142.187 110.812,148.124 111.651,150.613 112.151 C 154.508 112.933,160.443 113.941,169.463 115.354 C 170.707 115.549,172.743 115.814,173.987 115.942 C 175.231 116.070,176.927 116.320,177.757 116.498 C 179.269 116.823,185.910 118.093,189.444 118.733 C 197.443 120.183,200.761 120.796,206.032 121.798 C 209.350 122.429,214.354 123.368,217.154 123.885 C 219.953 124.402,226.145 125.826,230.914 127.048 C 235.683 128.271,243.402 130.035,248.068 130.968 C 252.733 131.902,258.775 133.174,261.494 133.795 C 277.476 137.448,284.987 135.113,285.012 126.484 C 285.040 117.100,277.152 113.131,246.079 106.896 C 234.383 104.549,230.739 103.923,218.662 102.181 C 215.862 101.777,211.189 100.937,208.277 100.315 C 203.380 99.269,186.314 96.714,165.316 93.884 C 160.547 93.241,154.779 92.395,152.498 92.004 C 138.205 89.553,121.996 88.461,116.718 89.592 M104.739 140.665 C 92.310 142.268,88.832 153.451,99.295 158.167 C 101.072 158.967,108.904 160.677,115.740 161.755 C 119.307 162.318,125.008 163.342,129.877 164.294 C 131.951 164.699,135.174 165.226,137.041 165.464 C 140.643 165.924,150.113 167.735,160.980 170.040 C 164.609 170.810,169.682 171.887,172.254 172.432 C 174.826 172.978,179.237 174.016,182.056 174.739 C 184.875 175.463,188.539 176.300,190.198 176.600 C 199.676 178.313,205.942 179.515,208.106 180.037 C 212.210 181.027,218.852 182.368,226.579 183.766 C 230.622 184.497,235.457 185.448,237.323 185.879 C 253.567 189.631,265.790 188.289,269.840 182.309 C 273.942 176.250,268.415 169.504,255.937 165.340 C 252.245 164.108,250.266 163.668,239.774 161.746 C 235.121 160.893,229.684 159.772,225.979 158.902 C 224.716 158.606,220.305 157.756,216.177 157.014 C 205.497 155.094,205.094 155.026,199.246 154.194 C 196.343 153.781,192.696 153.261,191.140 153.038 C 189.585 152.816,184.241 151.975,179.265 151.171 C 151.096 146.619,146.440 145.884,142.319 145.337 C 133.794 144.206,129.868 143.614,122.337 142.326 C 115.980 141.239,107.757 140.122,107.366 140.293 C 107.306 140.319,106.124 140.487,104.739 140.665 M92.426 194.371 C 86.541 195.954,83.455 201.338,85.748 206.024 C 87.530 209.668,91.160 211.590,99.570 213.343 C 102.554 213.966,105.712 214.729,106.589 215.040 C 110.849 216.552,136.609 221.678,148.539 223.387 C 158.825 224.860,161.274 225.104,163.619 224.885 C 179.865 223.370,178.220 208.783,161.402 205.225 C 158.993 204.716,154.647 203.724,151.744 203.021 C 148.841 202.319,142.988 201.138,138.737 200.398 C 114.478 196.174,106.590 194.793,104.053 194.326 C 100.421 193.658,94.998 193.679,92.426 194.371 " stroke="none" fill="#be6108" fill-rule="evenodd"></path><path id="path4" d="M134.025 15.844 C 113.346 16.972,91.501 23.583,77.287 33.012 C 58.028 45.789,44.121 70.477,36.420 105.561 C 31.592 127.557,27.916 150.230,25.754 171.348 C 24.854 180.133,24.859 200.300,25.761 206.221 C 30.405 236.681,42.252 252.491,70.141 265.446 C 79.197 269.653,80.354 270.125,87.653 272.596 C 91.178 273.789,96.013 275.454,98.398 276.297 C 102.220 277.646,107.069 278.965,130.443 285.012 C 133.450 285.790,137.521 286.715,139.491 287.069 C 145.540 288.156,152.340 289.527,155.702 290.337 C 161.644 291.768,169.069 293.239,171.573 293.481 C 192.151 295.466,197.061 308.293,189.469 340.228 C 188.974 342.311,188.284 345.234,187.935 346.723 C 184.725 360.442,192.713 362.706,215.646 354.575 C 227.443 350.392,244.470 338.473,251.978 329.142 C 261.137 317.759,264.068 313.821,266.584 309.519 C 269.946 303.770,272.991 301.571,280.679 299.340 C 301.159 293.398,312.670 286.019,322.787 272.349 C 326.188 267.753,333.331 254.530,335.392 249.015 C 335.935 247.561,337.864 242.469,339.679 237.700 C 341.493 232.931,343.328 227.926,343.755 226.579 C 344.183 225.231,345.554 220.905,346.802 216.965 C 351.407 202.430,356.560 182.454,358.714 170.782 C 359.461 166.739,360.823 159.698,361.742 155.137 C 365.000 138.966,365.590 134.134,365.931 120.829 C 366.392 102.820,364.386 93.216,357.117 78.633 C 350.383 65.124,330.889 50.309,310.023 42.842 C 292.023 36.401,274.205 31.871,251.084 27.859 C 242.686 26.402,233.449 24.795,230.558 24.289 C 198.805 18.729,153.610 14.776,134.025 15.844 M168.897 20.732 C 173.977 21.150,178.728 21.578,179.453 21.684 C 180.179 21.789,184.675 22.214,189.444 22.628 C 199.432 23.495,202.443 23.854,209.991 25.079 C 212.997 25.566,218.341 26.412,221.866 26.958 C 225.391 27.504,231.074 28.439,234.496 29.035 C 237.917 29.631,242.667 30.387,245.052 30.714 C 250.864 31.512,258.207 32.920,265.975 34.727 C 269.500 35.547,273.657 36.477,275.212 36.795 C 280.851 37.948,287.196 39.657,293.859 41.818 C 297.600 43.030,302.526 44.615,304.807 45.338 C 320.204 50.219,336.151 60.488,346.222 72.008 C 352.770 79.497,353.369 80.446,355.629 86.919 C 356.350 88.982,357.534 92.111,358.261 93.874 C 362.577 104.330,363.006 125.745,359.267 144.015 C 358.233 149.064,357.548 153.080,354.924 169.463 C 353.954 175.519,353.499 177.365,351.149 184.789 C 350.450 186.998,349.440 190.985,348.904 193.648 C 347.587 200.201,347.092 202.083,344.954 208.671 C 343.945 211.781,342.177 217.634,341.026 221.678 C 339.875 225.721,338.244 230.623,337.401 232.571 C 336.058 235.673,333.829 241.694,332.891 244.753 C 332.093 247.357,324.708 261.635,322.178 265.465 C 315.895 274.980,315.326 275.592,306.126 282.730 C 298.182 288.893,298.669 288.660,278.480 295.996 C 270.548 298.879,267.852 301.042,262.799 308.579 C 261.271 310.859,258.307 314.909,256.212 317.579 C 254.117 320.250,251.498 323.728,250.391 325.308 C 247.713 329.132,246.231 330.631,242.413 333.379 C 240.650 334.647,238.445 336.397,237.512 337.268 C 236.579 338.139,235.221 339.334,234.496 339.923 C 233.770 340.512,233.007 341.188,232.799 341.425 C 229.974 344.651,213.350 352.376,206.409 353.687 C 193.233 356.177,189.551 352.586,193.366 340.970 C 193.974 339.120,194.731 336.334,195.048 334.779 C 195.583 332.158,195.741 331.118,196.223 327.050 C 196.586 323.995,197.178 312.119,197.009 311.304 C 196.913 310.841,196.743 309.479,196.631 308.279 C 195.861 300.009,186.859 291.193,178.066 290.098 C 177.274 289.999,174.929 289.747,172.856 289.538 C 166.893 288.936,165.558 288.636,156.268 285.816 C 154.194 285.186,151.989 284.580,151.367 284.470 C 138.646 282.204,133.038 281.019,126.673 279.253 C 121.061 277.697,119.790 277.390,114.609 276.340 C 108.723 275.147,105.965 274.315,99.717 271.848 C 96.607 270.619,91.890 268.927,89.236 268.087 C 86.582 267.248,82.723 265.716,80.662 264.684 C 78.601 263.652,76.362 262.642,75.686 262.438 C 65.440 259.355,54.182 252.167,46.183 243.601 C 38.754 235.646,33.510 223.257,31.476 208.860 C 31.139 206.475,30.615 202.743,30.312 200.566 C 29.589 195.371,29.617 182.230,30.367 174.364 C 32.548 151.522,34.789 134.482,36.717 126.083 C 37.238 123.815,38.180 118.773,38.811 114.877 C 40.049 107.236,41.293 101.907,43.979 92.743 C 48.091 78.715,47.611 79.949,55.052 64.279 C 64.568 44.238,86.283 28.042,110.085 23.233 C 128.446 19.523,145.428 18.801,168.897 20.732 " stroke="none" fill="#866130" fill-rule="evenodd"></path><path id="path5" d="M125.134 30.508 C 124.599 30.677,122.478 30.940,120.422 31.092 C 115.240 31.476,110.194 32.517,105.749 34.118 C 103.676 34.865,101.470 35.617,100.848 35.789 C 100.226 35.961,99.208 36.375,98.586 36.710 C 97.964 37.045,97.297 37.320,97.105 37.321 C 96.912 37.322,93.850 38.761,90.300 40.518 C 80.849 45.198,74.854 50.414,69.058 59.001 C 65.226 64.678,64.359 66.214,62.780 70.123 C 61.984 72.092,60.323 75.731,59.090 78.209 C 55.918 84.579,55.351 86.417,52.980 98.021 C 52.238 101.649,51.138 106.739,50.534 109.331 C 49.930 111.923,49.328 115.146,49.196 116.494 C 49.064 117.842,48.709 120.895,48.407 123.280 C 47.576 129.859,47.324 134.967,47.832 134.967 C 48.065 134.967,48.256 135.280,48.256 135.663 C 48.256 137.544,49.532 137.682,51.200 135.983 C 52.069 135.097,52.780 134.192,52.780 133.971 C 52.780 133.750,53.205 133.111,53.724 132.551 C 54.243 131.991,54.908 131.076,55.203 130.517 C 55.912 129.171,58.216 127.050,58.968 127.050 C 59.297 127.050,59.566 126.892,59.566 126.699 C 59.566 126.506,59.946 126.294,60.411 126.228 C 60.886 126.160,61.316 125.790,61.394 125.381 C 61.540 124.616,62.876 123.314,63.537 123.292 C 63.751 123.286,64.922 122.273,66.140 121.042 C 68.105 119.057,68.519 118.807,69.819 118.825 C 70.625 118.836,71.574 118.613,71.929 118.329 C 73.114 117.380,74.251 116.871,75.185 116.871 C 75.694 116.871,76.212 116.706,76.336 116.505 C 76.461 116.303,77.404 116.027,78.432 115.891 C 79.460 115.754,80.302 115.495,80.302 115.314 C 80.302 115.134,80.620 114.986,81.009 114.986 C 81.399 114.986,81.928 114.731,82.187 114.420 C 82.491 114.054,83.328 113.855,84.565 113.855 C 85.961 113.855,86.691 113.650,87.284 113.094 C 87.902 112.513,88.827 112.276,91.185 112.094 C 92.885 111.963,94.366 111.712,94.474 111.536 C 94.583 111.360,95.137 111.216,95.706 111.216 C 96.274 111.216,96.935 111.019,97.175 110.779 C 97.493 110.461,97.747 110.455,98.110 110.757 C 99.693 112.070,101.752 110.746,100.418 109.272 C 98.655 107.324,99.895 95.965,102.324 91.822 C 103.398 89.989,108.231 85.580,109.165 85.580 C 109.478 85.580,110.110 85.338,110.569 85.043 C 113.266 83.309,122.362 82.248,127.050 83.121 C 130.404 83.745,137.689 84.629,142.507 84.998 C 146.171 85.278,154.232 86.263,156.645 86.725 C 159.637 87.298,168.290 88.569,173.355 89.180 C 175.910 89.489,180.288 90.077,183.083 90.488 C 188.553 91.292,200.144 91.560,199.057 90.858 C 198.643 90.590,198.913 90.491,200.072 90.486 C 200.941 90.483,201.757 90.650,201.885 90.858 C 202.190 91.350,206.598 91.350,206.598 90.858 C 206.598 90.309,208.391 90.395,208.578 90.952 C 208.699 91.311,208.901 91.289,209.425 90.858 C 209.949 90.427,210.151 90.404,210.272 90.763 C 210.470 91.353,211.122 91.385,211.122 90.805 C 211.122 90.183,209.933 89.376,208.997 89.362 C 207.764 89.343,206.381 88.478,206.512 87.807 C 206.577 87.477,206.368 86.990,206.048 86.724 C 205.270 86.078,205.258 82.829,206.032 82.187 C 206.343 81.928,206.598 81.425,206.598 81.068 C 206.598 80.277,207.754 79.171,208.580 79.171 C 208.919 79.171,209.237 78.799,209.305 78.322 C 209.397 77.669,209.711 77.447,210.669 77.355 C 211.597 77.265,212.006 76.991,212.278 76.277 C 212.574 75.498,212.744 75.403,213.184 75.768 C 213.618 76.128,213.934 76.024,214.776 75.244 C 215.378 74.685,216.270 74.270,216.867 74.270 C 217.439 74.270,217.908 74.112,217.908 73.919 C 217.908 73.726,218.288 73.514,218.752 73.448 C 219.230 73.379,219.657 73.009,219.736 72.595 C 219.813 72.192,220.281 71.543,220.777 71.153 C 221.414 70.653,221.678 70.066,221.678 69.153 C 221.678 68.255,221.850 67.861,222.243 67.861 C 222.554 67.861,222.809 67.691,222.809 67.484 C 222.809 67.276,223.035 67.107,223.311 67.107 C 223.588 67.107,224.309 66.602,224.914 65.986 C 225.613 65.274,226.404 64.862,227.085 64.855 C 227.835 64.848,228.217 64.618,228.354 64.090 C 228.463 63.676,228.853 63.336,229.221 63.336 C 229.590 63.336,229.989 63.082,230.108 62.771 C 230.227 62.460,230.670 62.205,231.091 62.205 C 231.512 62.205,231.857 62.036,231.857 61.828 C 231.857 61.621,231.382 61.451,230.801 61.451 C 228.532 61.451,228.712 60.263,231.118 59.361 C 231.437 59.241,231.861 58.772,232.060 58.318 C 232.305 57.760,232.819 57.455,233.648 57.375 C 234.321 57.310,234.873 57.098,234.873 56.904 C 234.873 56.709,235.446 56.550,236.146 56.550 C 236.846 56.550,237.631 56.296,237.889 55.985 C 238.147 55.674,238.836 55.419,239.421 55.419 C 240.005 55.419,240.600 55.231,240.742 55.001 C 241.203 54.255,259.200 55.230,261.382 56.118 C 261.965 56.356,263.185 56.550,264.093 56.550 C 265.000 56.550,265.832 56.694,265.940 56.871 C 266.049 57.047,267.459 57.296,269.073 57.425 C 270.687 57.553,272.516 57.826,273.139 58.031 C 273.761 58.236,275.536 58.686,277.084 59.030 C 278.633 59.374,280.248 59.884,280.673 60.163 C 281.099 60.442,282.462 60.784,283.702 60.924 C 284.942 61.063,286.126 61.302,286.334 61.455 C 286.541 61.608,287.513 61.849,288.493 61.991 C 289.473 62.133,290.373 62.409,290.494 62.604 C 290.615 62.800,291.170 62.965,291.728 62.971 C 292.286 62.978,293.072 63.233,293.475 63.537 C 293.877 63.841,294.564 64.090,295.001 64.090 C 295.439 64.090,295.958 64.234,296.155 64.409 C 296.714 64.905,302.599 66.730,303.643 66.730 C 304.157 66.730,305.376 67.154,306.351 67.672 C 307.326 68.190,308.588 68.615,309.155 68.615 C 309.723 68.615,310.673 68.868,311.267 69.178 C 311.861 69.487,312.714 69.742,313.164 69.743 C 313.613 69.744,314.045 69.938,314.123 70.174 C 314.360 70.883,317.215 70.682,318.139 69.891 L 318.971 69.180 318.109 68.979 C 317.636 68.869,317.080 68.402,316.876 67.942 C 316.671 67.483,316.321 67.107,316.098 67.107 C 315.875 67.107,315.194 66.581,314.585 65.940 C 313.976 65.298,312.375 64.194,311.027 63.486 C 309.680 62.779,308.322 62.049,308.011 61.864 C 307.176 61.368,304.168 60.149,303.702 60.118 C 303.480 60.103,302.821 59.888,302.237 59.640 C 301.654 59.392,300.818 59.189,300.379 59.189 C 299.485 59.189,297.279 58.545,296.138 57.952 C 295.725 57.737,294.877 57.433,294.253 57.277 C 293.630 57.120,292.187 56.624,291.046 56.173 C 289.906 55.723,288.464 55.216,287.842 55.046 C 287.220 54.876,285.608 54.281,284.260 53.723 C 281.465 52.566,280.370 52.255,276.155 51.425 C 274.496 51.098,272.969 50.698,272.762 50.536 C 272.554 50.374,270.943 50.042,269.180 49.798 C 265.804 49.331,263.501 48.795,258.247 47.250 C 252.163 45.463,251.638 45.333,248.633 44.878 C 246.975 44.626,243.327 44.022,240.528 43.536 C 237.729 43.049,233.911 42.457,232.045 42.219 C 230.179 41.982,228.228 41.695,227.710 41.582 C 227.191 41.468,226.343 41.328,225.825 41.271 C 224.476 41.123,219.457 40.032,219.096 39.809 C 218.929 39.706,217.024 39.276,214.862 38.854 C 212.701 38.432,210.199 37.912,209.301 37.699 C 208.404 37.485,204.757 37.146,201.196 36.944 C 193.966 36.535,191.767 36.300,190.386 35.789 C 189.868 35.597,188.087 35.198,186.428 34.901 C 184.769 34.604,181.800 34.016,179.830 33.594 C 177.861 33.171,174.722 32.726,172.856 32.604 C 170.990 32.482,168.021 32.210,166.258 32.000 C 164.496 31.790,158.600 31.480,153.157 31.312 C 147.715 31.144,143.049 30.840,142.790 30.636 C 142.215 30.183,126.522 30.069,125.134 30.508 M235.815 90.104 C 235.687 90.311,234.256 90.481,232.635 90.481 C 230.474 90.481,229.562 90.632,229.218 91.046 C 228.960 91.357,228.343 91.612,227.847 91.612 C 227.351 91.612,226.608 91.781,226.197 91.989 C 225.785 92.196,225.111 92.535,224.699 92.743 C 224.287 92.950,223.713 93.120,223.423 93.120 C 222.885 93.120,222.344 94.415,222.724 94.794 C 222.840 94.910,223.405 95.005,223.980 95.005 C 224.556 95.005,225.119 95.154,225.231 95.337 C 225.667 96.041,233.743 97.068,233.742 96.418 C 233.742 96.263,234.306 96.136,234.996 96.136 C 235.845 96.136,236.535 95.832,237.135 95.193 C 237.622 94.675,238.330 94.251,238.709 94.251 C 239.244 94.251,239.397 93.957,239.397 92.931 C 239.397 92.121,239.213 91.612,238.922 91.612 C 238.660 91.612,237.989 91.188,237.430 90.669 C 236.295 89.616,236.148 89.565,235.815 90.104 M130.569 118.567 C 130.569 119.105,131.414 119.259,134.496 119.285 C 134.962 119.289,135.344 119.426,135.344 119.589 C 135.344 119.753,134.825 119.887,134.191 119.887 C 133.556 119.887,133.131 120.038,133.245 120.222 C 133.515 120.660,136.090 120.959,136.324 120.580 C 136.423 120.420,137.007 120.389,137.621 120.512 C 138.568 120.701,138.737 120.618,138.737 119.962 C 138.737 119.536,139.034 119.111,139.397 119.016 C 140.040 118.848,136.906 118.608,135.660 118.731 C 135.316 118.764,134.924 118.614,134.790 118.397 C 134.384 117.740,130.569 117.894,130.569 118.567 M156.833 122.149 C 157.144 122.350,157.770 122.517,158.225 122.520 C 158.679 122.523,159.156 122.696,159.284 122.903 C 159.412 123.110,159.804 123.281,160.154 123.282 C 160.505 123.284,161.278 123.538,161.872 123.848 C 163.083 124.480,163.996 124.578,163.996 124.078 C 163.996 123.895,163.699 123.645,163.336 123.523 C 162.974 123.402,162.422 123.154,162.111 122.972 C 160.416 121.985,159.696 121.772,158.064 121.778 C 156.765 121.782,156.424 121.885,156.833 122.149 M150.236 122.903 C 150.103 123.118,150.428 123.280,150.990 123.280 C 151.552 123.280,151.876 123.118,151.744 122.903 C 151.615 122.696,151.276 122.526,150.990 122.526 C 150.703 122.526,150.364 122.696,150.236 122.903 M125.749 172.981 C 126.644 173.764,130.066 174.412,130.066 173.798 C 130.066 173.591,129.737 173.421,129.334 173.421 C 128.932 173.421,128.498 173.252,128.369 173.044 C 128.241 172.837,127.519 172.667,126.764 172.667 C 125.998 172.667,125.550 172.806,125.749 172.981 " stroke="none" fill="#fbc833" fill-rule="evenodd"></path><path id="path6" d="M363.063 71.289 C 363.068 71.788,363.249 72.875,363.465 73.704 C 363.681 74.533,363.910 75.636,363.974 76.155 C 364.037 76.673,364.535 78.434,365.080 80.067 C 365.624 81.700,366.070 83.272,366.070 83.559 C 366.070 83.847,366.228 84.376,366.422 84.737 C 366.748 85.340,367.947 90.391,368.502 93.497 C 369.896 101.290,370.601 119.023,369.844 127.238 C 369.653 129.312,369.318 133.044,369.099 135.533 C 368.759 139.405,367.631 148.139,366.055 159.095 C 365.832 160.650,365.075 163.959,364.374 166.447 C 363.171 170.718,362.453 173.975,360.965 181.904 C 360.186 186.056,358.814 191.685,357.527 196.007 C 356.997 197.789,355.885 202.045,355.057 205.467 C 352.703 215.189,351.578 219.262,349.949 223.951 C 349.118 226.341,348.236 229.310,347.989 230.548 C 347.300 233.996,345.819 238.065,343.758 242.172 C 342.730 244.221,341.034 248.040,339.990 250.658 C 338.081 255.444,336.763 258.282,335.153 261.074 C 334.675 261.904,333.266 264.533,332.023 266.918 C 326.143 278.196,317.419 289.538,314.625 289.538 C 314.551 289.538,312.804 290.540,310.742 291.764 C 304.665 295.372,290.416 302.219,287.088 303.129 C 277.099 305.862,274.918 307.318,270.099 314.468 C 269.075 315.987,266.032 320.037,263.336 323.467 C 260.641 326.898,257.672 330.707,256.739 331.932 C 254.391 335.014,249.655 339.723,245.617 342.991 C 238.193 349.000,236.719 350.002,230.726 353.118 C 227.304 354.896,224.074 356.658,223.546 357.034 C 222.313 357.912,218.495 359.601,216.784 360.025 C 213.673 360.798,208.469 362.333,205.844 363.254 C 197.584 366.149,187.302 366.708,184.376 364.421 C 183.942 364.082,183.896 364.110,184.149 364.562 C 184.406 365.022,184.370 365.039,183.957 364.656 C 182.177 363.004,182.872 367.420,184.690 369.308 C 185.127 369.762,185.485 370.291,185.485 370.482 C 185.485 370.672,185.802 371.168,186.188 371.583 C 186.575 371.998,187.090 372.709,187.333 373.162 C 187.575 373.616,188.031 373.987,188.345 373.987 C 189.458 373.987,191.133 375.145,191.367 376.077 L 191.604 377.023 203.908 376.884 C 216.311 376.744,217.873 376.624,220.038 375.652 C 220.692 375.358,221.393 375.118,221.597 375.118 C 221.801 375.118,222.454 374.864,223.048 374.555 C 223.642 374.245,224.485 373.990,224.920 373.989 C 226.161 373.985,228.005 373.235,228.233 372.641 C 228.347 372.344,228.785 372.102,229.206 372.102 C 229.627 372.102,229.972 371.974,229.972 371.817 C 229.972 371.456,233.464 369.840,234.244 369.840 C 234.565 369.840,234.921 369.689,235.035 369.506 C 235.148 369.322,235.832 369.060,236.554 368.925 C 238.006 368.653,255.672 359.791,258.058 358.138 C 258.888 357.563,260.794 355.982,262.294 354.623 C 263.794 353.265,265.406 351.949,265.876 351.699 C 267.064 351.067,270.101 348.574,272.621 346.162 C 273.787 345.045,275.141 343.932,275.629 343.689 C 276.117 343.445,276.709 342.861,276.943 342.391 C 277.177 341.921,277.732 341.150,278.176 340.678 C 278.619 340.206,278.982 339.674,278.982 339.496 C 278.982 339.319,279.220 338.906,279.510 338.578 C 279.801 338.251,280.506 337.135,281.077 336.098 C 281.648 335.061,282.683 333.546,283.377 332.731 C 284.070 331.916,284.637 331.060,284.637 330.829 C 284.637 330.597,285.316 329.745,286.145 328.935 C 286.975 328.125,287.653 327.250,287.653 326.991 C 287.653 326.732,288.289 326.242,289.067 325.903 C 289.844 325.564,290.905 325.066,291.423 324.796 C 291.942 324.527,293.472 324.210,294.824 324.091 C 302.795 323.390,313.486 318.660,326.107 310.251 C 328.285 308.800,330.999 306.998,332.139 306.246 C 334.427 304.737,339.264 299.899,340.093 298.292 C 340.384 297.728,341.131 296.519,341.753 295.605 C 345.733 289.758,347.220 287.511,347.220 287.346 C 347.220 287.243,347.644 286.603,348.162 285.923 C 348.680 285.244,349.105 284.599,349.105 284.492 C 349.105 284.384,349.842 283.228,350.744 281.922 C 351.646 280.616,353.215 277.877,354.232 275.834 C 357.227 269.814,357.418 269.455,358.683 267.484 C 360.944 263.959,362.648 259.953,363.816 255.419 C 364.936 251.073,366.459 246.997,367.409 245.806 C 367.657 245.495,368.063 244.607,368.312 243.832 C 368.560 243.057,368.906 242.335,369.080 242.228 C 369.255 242.120,369.516 241.312,369.660 240.432 C 369.805 239.551,371.158 235.099,372.668 230.537 C 374.178 225.975,375.612 221.395,375.853 220.358 C 376.095 219.321,376.439 217.879,376.616 217.154 C 376.794 216.428,377.047 215.071,377.179 214.138 C 377.645 210.830,378.947 204.492,379.619 202.262 C 379.994 201.018,380.675 198.303,381.133 196.230 C 383.170 187.003,383.841 184.090,384.180 183.008 C 384.380 182.371,384.543 181.483,384.543 181.034 C 384.543 180.585,384.711 179.495,384.917 178.610 C 385.122 177.726,385.532 175.646,385.827 173.987 C 386.122 172.328,386.894 168.511,387.541 165.504 L 388.718 160.038 388.699 141.188 C 388.675 117.584,388.455 114.209,386.612 109.142 C 385.857 107.069,385.019 104.524,384.749 103.487 C 383.042 96.933,378.531 87.622,375.396 84.180 C 374.620 83.328,373.918 82.221,373.290 80.856 C 373.096 80.435,372.018 79.156,370.894 78.015 C 369.771 76.873,368.740 75.648,368.603 75.292 C 368.467 74.937,368.115 74.647,367.822 74.647 C 367.529 74.647,366.704 74.010,365.990 73.233 C 363.521 70.543,363.052 70.232,363.063 71.289 M61.346 271.048 C 60.639 271.897,60.768 272.573,61.637 272.573 C 61.922 272.573,62.262 272.912,62.394 273.327 C 62.526 273.742,62.791 274.081,62.985 274.081 C 63.178 274.081,63.659 274.403,64.052 274.797 C 64.670 275.414,65.598 276.034,68.922 278.047 C 69.271 278.259,70.999 279.378,72.762 280.534 C 74.524 281.691,76.413 282.875,76.959 283.166 C 77.504 283.457,79.116 284.478,80.540 285.435 C 83.696 287.556,85.488 288.512,91.779 291.434 C 94.463 292.681,96.923 293.921,97.246 294.190 C 98.242 295.022,103.620 297.296,108.954 299.141 C 117.730 302.178,119.221 302.635,123.091 303.477 C 129.558 304.884,134.635 306.374,138.549 308.013 C 143.985 310.290,145.106 310.576,151.178 311.237 C 154.185 311.564,157.663 311.977,158.907 312.155 C 160.151 312.333,163.205 312.764,165.693 313.113 C 168.181 313.462,171.065 313.977,172.102 314.257 C 180.598 316.556,182.689 316.764,183.853 315.425 C 186.190 312.737,185.830 307.012,183.094 303.361 C 179.310 298.314,175.917 296.982,162.300 295.202 C 158.429 294.696,154.410 293.935,151.489 293.154 C 150.385 292.859,147.276 292.027,144.581 291.307 C 141.885 290.586,137.135 289.543,134.025 288.990 C 123.550 287.126,122.813 286.950,114.812 284.393 C 112.539 283.667,107.450 282.323,103.502 281.405 C 96.651 279.813,89.595 277.742,88.780 277.085 C 88.421 276.795,80.557 274.653,78.449 274.270 C 77.913 274.173,76.899 273.926,76.195 273.721 C 75.492 273.516,74.782 273.432,74.619 273.533 C 74.455 273.634,74.229 273.566,74.115 273.382 C 73.951 273.117,71.934 272.516,71.534 272.614 C 71.484 272.626,70.551 272.285,69.463 271.856 C 68.374 271.427,67.484 271.179,67.484 271.305 C 67.484 271.431,67.254 271.344,66.974 271.111 C 65.884 270.207,62.082 270.164,61.346 271.048 " stroke="none" fill="#0d4074" fill-rule="evenodd"></path><path id="path7" d="" stroke="none" fill="#175489" fill-rule="evenodd"></path><path id="path8" d="M131.197 19.978 C 124.044 20.633,109.318 23.189,104.618 24.592 C 81.682 31.437,63.877 45.694,55.052 64.279 C 49.334 76.320,47.810 79.809,46.818 83.129 C 41.471 101.029,40.311 105.624,38.817 114.822 C 38.190 118.687,37.185 124.081,36.584 126.806 C 35.379 132.271,33.790 142.275,34.018 142.958 C 34.098 143.198,34.378 142.134,34.641 140.594 C 35.205 137.296,36.336 132.931,37.344 130.165 C 38.435 127.171,39.987 121.464,40.158 119.818 C 40.242 119.012,40.388 118.228,40.482 118.076 C 40.577 117.923,40.761 117.038,40.893 116.109 C 41.024 115.180,41.203 114.166,41.290 113.855 C 41.443 113.310,41.595 112.215,42.023 108.577 C 42.771 102.213,43.806 98.428,46.201 93.291 C 46.882 91.831,48.146 88.183,49.009 85.186 C 49.873 82.188,50.677 79.482,50.797 79.171 C 50.917 78.860,51.000 78.514,50.982 78.404 C 50.964 78.293,51.436 77.360,52.031 76.330 C 52.625 75.301,54.492 71.762,56.179 68.467 C 64.326 52.557,75.096 40.666,86.522 34.965 C 95.938 30.268,105.601 26.828,112.712 25.642 C 135.596 21.827,145.097 21.591,173.610 24.126 C 178.172 24.531,185.212 25.128,189.255 25.451 C 193.299 25.775,198.134 26.205,200.000 26.407 C 201.866 26.609,205.853 26.940,208.860 27.142 C 211.866 27.344,214.835 27.600,215.457 27.709 C 216.936 27.970,222.836 29.406,223.563 29.682 C 224.223 29.933,224.159 29.917,227.333 30.645 C 230.761 31.431,241.000 32.990,248.822 33.917 C 262.080 35.488,261.934 35.458,269.778 38.206 C 271.248 38.721,273.029 39.234,273.737 39.347 C 274.445 39.460,275.872 39.719,276.909 39.922 C 277.945 40.126,280.575 40.559,282.752 40.886 C 285.225 41.257,289.540 42.392,294.251 43.911 C 301.970 46.401,305.504 47.493,306.503 47.695 C 309.581 48.320,312.873 49.494,317.625 51.662 C 318.040 51.851,319.227 52.335,320.264 52.739 C 321.301 53.142,322.828 53.756,323.657 54.103 C 324.486 54.451,324.995 54.566,324.788 54.359 C 323.867 53.440,308.551 46.525,304.807 45.338 C 302.526 44.615,297.600 43.030,293.859 41.818 C 287.196 39.657,280.851 37.948,275.212 36.795 C 273.657 36.477,269.500 35.547,265.975 34.727 C 258.207 32.920,250.864 31.512,245.052 30.714 C 242.667 30.387,237.917 29.631,234.496 29.035 C 231.074 28.439,225.391 27.504,221.866 26.958 C 218.341 26.412,212.997 25.566,209.991 25.079 C 202.443 23.854,199.432 23.495,189.444 22.628 C 184.675 22.214,180.179 21.789,179.453 21.684 C 170.044 20.318,139.342 19.233,131.197 19.978 M329.647 57.795 C 330.453 58.507,331.641 59.390,332.286 59.758 C 333.921 60.691,333.122 59.967,330.443 58.088 C 328.459 56.696,328.361 56.660,329.647 57.795 M33.204 147.879 C 32.958 150.212,32.521 154.072,32.233 156.456 C 31.411 163.252,31.216 166.221,31.660 165.198 C 32.383 163.532,32.928 159.400,33.559 150.801 C 33.780 147.795,34.042 144.953,34.141 144.486 C 34.240 144.020,34.171 143.638,33.986 143.638 C 33.802 143.638,33.450 145.547,33.204 147.879 " stroke="none" fill="#a48c54" fill-rule="evenodd"></path></g></svg>