<svg id="svg" fill="none" version="1.1" width="400" height="400" viewBox="0 0 400 400" xmlns="http://www.w3.org/2000/svg" xmlns:xlink="http://www.w3.org/1999/xlink"><g id="svgg"><path id="path0" d="M282.700 118.813 C 281.762 119.385,281.812 120.671,282.792 121.196 C 283.301 121.468,287.769 121.612,295.292 121.598 C 314.841 121.562,313.332 119.404,313.600 147.800 L 313.800 169.000 315.000 169.000 L 316.200 169.000 316.303 147.757 C 316.419 124.126,316.513 125.060,313.691 121.927 C 310.799 118.716,310.303 118.620,296.000 118.496 C 287.595 118.423,283.167 118.529,282.700 118.813 M168.840 126.600 C 166.463 127.344,163.826 129.989,163.028 132.431 C 162.105 135.252,162.071 227.367,162.992 229.976 C 163.878 232.488,165.047 233.896,167.336 235.209 L 169.400 236.392 193.100 236.396 C 219.588 236.400,217.300 236.125,216.384 239.203 C 216.155 239.971,215.800 241.320,215.596 242.200 C 215.391 243.080,214.955 244.880,214.627 246.200 C 213.186 251.989,212.806 253.561,212.211 256.177 C 211.864 257.704,211.507 259.027,211.417 259.117 C 211.327 259.207,206.929 259.254,201.645 259.222 C 190.024 259.150,190.400 258.997,190.400 263.826 C 190.400 265.491,190.586 267.201,190.814 267.626 C 191.431 268.779,279.754 268.851,280.309 267.700 C 280.777 266.730,280.521 260.361,279.993 259.832 C 279.718 259.557,275.906 259.327,269.490 259.200 L 259.418 259.000 258.927 257.000 C 258.657 255.900,258.175 254.010,257.855 252.800 C 256.578 247.965,255.214 242.876,254.584 240.600 C 254.219 239.280,253.827 237.795,253.713 237.300 L 253.507 236.400 277.358 236.400 C 300.835 236.400,301.237 236.387,303.015 235.551 C 305.162 234.542,307.447 232.011,308.003 230.026 C 308.597 227.904,308.537 134.352,307.940 132.359 C 307.336 130.340,305.498 128.177,303.461 127.088 L 301.800 126.200 236.200 126.124 C 181.434 126.061,170.309 126.140,168.840 126.600 M302.158 130.107 C 305.448 131.993,305.200 127.820,305.199 181.194 C 305.199 234.095,305.403 230.313,302.441 232.292 L 301.082 233.200 235.754 233.200 C 163.125 233.200,168.790 233.422,166.785 230.496 L 165.800 229.059 165.694 181.829 C 165.583 132.157,165.544 133.322,167.365 131.249 C 169.227 129.129,165.749 129.232,235.600 129.222 L 300.600 129.213 302.158 130.107 M171.030 134.131 C 170.454 134.555,170.403 138.285,170.497 173.200 L 170.600 211.800 235.158 211.901 C 282.539 211.976,299.859 211.883,300.258 211.552 C 300.707 211.179,300.800 204.580,300.800 172.974 L 300.800 134.845 299.900 134.211 C 298.730 133.387,172.149 133.308,171.030 134.131 M297.400 172.800 L 297.400 208.600 235.500 208.701 L 173.600 208.803 173.600 173.068 C 173.600 153.414,173.724 137.209,173.876 137.058 C 174.027 136.906,201.882 136.831,235.776 136.891 L 297.400 137.000 297.400 172.800 M186.816 144.581 C 186.075 145.473,186.681 146.732,187.919 146.875 C 188.514 146.944,196.515 146.951,205.700 146.891 L 222.400 146.783 222.400 145.634 C 222.400 144.956,222.141 144.386,221.767 144.243 C 220.254 143.662,187.314 143.980,186.816 144.581 M94.700 150.832 C 93.994 151.243,93.546 264.351,94.243 266.167 C 94.461 266.736,97.350 266.800,122.796 266.800 L 151.107 266.800 151.348 265.900 C 151.980 263.542,151.613 151.670,150.971 151.029 C 150.209 150.266,95.997 150.077,94.700 150.832 M187.519 151.072 C 186.621 151.308,186.208 152.687,186.816 153.419 C 187.542 154.294,254.458 154.294,255.184 153.419 C 255.903 152.553,255.527 151.472,254.398 151.157 C 253.321 150.858,188.647 150.775,187.519 151.072 M148.302 191.300 L 148.404 228.800 122.802 228.800 L 97.200 228.800 97.200 214.000 L 97.200 199.200 118.371 199.200 C 140.761 199.200,140.800 199.197,140.800 197.420 C 140.800 195.895,140.188 195.848,118.465 195.721 L 97.400 195.598 97.296 175.099 C 97.239 163.825,97.279 154.374,97.385 154.097 C 97.537 153.699,102.852 153.615,122.889 153.697 L 148.200 153.800 148.302 191.300 M186.880 158.480 C 186.228 159.132,186.277 159.820,187.029 160.571 C 187.590 161.133,191.243 161.200,221.237 161.200 L 254.817 161.200 255.267 160.212 C 256.321 157.899,257.878 158.000,221.031 158.000 C 195.376 158.000,187.246 158.114,186.880 158.480 M100.267 162.667 C 99.625 163.308,99.974 181.104,100.633 181.357 C 101.933 181.856,144.211 181.629,144.720 181.120 C 145.533 180.307,145.390 162.958,144.567 162.643 C 143.701 162.310,100.600 162.333,100.267 162.667 M142.000 172.000 L 142.000 178.400 122.600 178.400 L 103.200 178.400 103.200 172.000 L 103.200 165.600 122.600 165.600 L 142.000 165.600 142.000 172.000 M187.029 185.429 C 186.277 186.180,186.228 186.868,186.880 187.520 C 187.573 188.213,232.827 188.213,233.520 187.520 C 234.241 186.799,234.098 185.681,233.226 185.214 C 231.811 184.457,187.796 184.661,187.029 185.429 M186.880 192.480 C 186.228 193.132,186.277 193.820,187.029 194.571 C 187.593 195.135,192.277 195.200,232.606 195.200 L 277.555 195.200 278.158 194.338 C 278.593 193.718,278.651 193.269,278.367 192.738 C 277.871 191.811,187.803 191.557,186.880 192.480 M187.029 199.429 C 186.277 200.180,186.228 200.868,186.880 201.520 C 187.248 201.888,197.961 202.000,232.666 202.000 L 277.972 202.000 278.418 201.167 C 278.774 200.502,278.723 200.178,278.170 199.567 C 277.190 198.484,188.108 198.349,187.029 199.429 M118.683 213.636 C 114.027 217.474,115.429 224.345,121.207 226.002 C 125.090 227.116,129.600 223.370,129.600 219.031 C 129.600 213.661,122.756 210.278,118.683 213.636 M124.364 216.181 C 128.064 218.094,125.873 223.391,121.705 222.609 C 119.231 222.145,118.356 218.553,120.255 216.655 C 121.440 215.469,122.705 215.324,124.364 216.181 M234.178 222.057 C 230.968 222.912,229.761 227.543,232.130 229.912 C 233.833 231.615,237.215 231.505,238.833 229.694 C 241.889 226.273,238.601 220.879,234.178 222.057 M236.735 226.355 C 236.958 227.932,235.155 228.611,234.416 227.229 C 233.788 226.057,234.325 225.136,235.551 225.278 C 236.308 225.366,236.638 225.666,236.735 226.355 M148.323 233.700 L 148.200 235.400 122.744 235.503 C 95.070 235.615,96.734 235.758,97.098 233.300 L 97.291 232.000 122.868 232.000 L 148.446 232.000 148.323 233.700 M250.710 238.500 C 250.976 239.435,252.340 244.430,253.741 249.600 L 256.288 259.000 235.681 259.104 C 224.347 259.161,215.002 259.135,214.914 259.047 C 214.758 258.891,216.538 251.186,217.189 249.200 C 217.370 248.650,218.121 245.637,218.859 242.504 L 220.200 236.808 235.213 236.804 L 250.225 236.800 250.710 238.500 M148.308 246.507 L 148.417 254.406 122.708 254.303 L 97.000 254.200 96.925 246.503 L 96.849 238.806 121.125 238.703 C 134.476 238.646,146.030 238.602,146.800 238.604 L 148.200 238.608 148.308 246.507 M148.400 260.600 L 148.400 263.600 123.200 263.600 C 109.340 263.600,97.865 263.645,97.700 263.700 C 97.535 263.755,97.347 262.405,97.283 260.700 L 97.166 257.600 122.783 257.600 L 148.400 257.600 148.400 260.600 M275.853 262.738 C 277.082 262.799,278.052 264.474,277.173 265.017 C 276.997 265.126,258.166 265.214,235.326 265.212 L 193.800 265.209 193.675 264.007 L 193.550 262.804 231.475 262.702 C 268.337 262.603,273.228 262.607,275.853 262.738 M89.754 274.177 C 88.913 276.368,82.555 276.200,166.362 276.200 C 249.455 276.200,244.955 276.315,243.228 274.234 C 242.463 273.312,90.107 273.255,89.754 274.177 M84.300 278.832 C 83.369 279.374,83.410 280.670,84.374 281.186 C 84.883 281.459,93.571 281.600,109.800 281.600 C 135.161 281.600,136.000 281.549,136.000 280.000 C 136.000 279.575,135.652 279.042,135.226 278.814 C 134.169 278.248,85.273 278.265,84.300 278.832 M178.700 278.832 C 177.651 279.443,177.831 280.755,179.026 281.210 C 180.205 281.658,282.791 281.690,284.398 281.243 C 285.626 280.901,285.937 279.636,284.967 278.926 C 284.046 278.253,179.853 278.160,178.700 278.832 M293.900 278.676 C 292.718 278.985,292.974 281.057,294.233 281.373 C 295.431 281.673,306.813 281.626,308.001 281.316 C 309.182 281.007,309.105 278.975,307.900 278.652 C 306.874 278.377,294.965 278.397,293.900 278.676 " stroke="none" fill="#245c67" fill-rule="evenodd"></path><path id="path2" d="M173.784 137.300 C 173.679 137.575,173.641 153.640,173.699 173.000 L 173.804 208.200 173.902 172.701 L 174.000 137.203 228.500 137.100 L 283.000 136.997 228.487 136.899 C 185.173 136.820,173.936 136.903,173.784 137.300 M284.500 137.076 C 284.885 137.176,285.515 137.176,285.900 137.076 C 286.285 136.975,285.970 136.893,285.200 136.893 C 284.430 136.893,284.115 136.975,284.500 137.076 M292.597 137.093 L 297.196 137.225 297.301 172.713 L 297.406 208.200 297.403 172.600 L 297.400 137.000 292.699 136.980 L 287.999 136.960 292.597 137.093 M175.700 138.269 C 175.425 138.378,175.200 138.801,175.200 139.210 C 175.200 139.618,175.040 140.052,174.843 140.173 C 174.295 140.512,174.309 206.808,174.857 207.469 C 175.599 208.363,295.820 208.246,296.164 207.351 C 296.301 206.994,296.404 191.353,296.393 172.593 L 296.374 138.484 295.087 138.251 C 293.535 137.969,176.413 137.987,175.700 138.269 M223.125 140.775 C 223.225 141.075,223.075 141.225,222.775 141.125 C 222.486 141.029,222.171 140.714,222.075 140.425 C 221.975 140.125,222.125 139.975,222.425 140.075 C 222.714 140.171,223.029 140.486,223.125 140.775 M224.788 140.384 C 225.112 140.589,225.243 140.891,225.079 141.054 C 224.915 141.218,224.477 141.048,224.105 140.676 C 223.382 139.953,223.815 139.769,224.788 140.384 M212.326 142.299 C 208.435 142.365,201.955 142.365,197.926 142.300 C 193.897 142.234,197.080 142.181,205.000 142.181 C 212.920 142.180,216.217 142.234,212.326 142.299 M222.148 143.279 C 224.051 144.298,224.370 145.427,223.245 147.157 C 222.398 148.459,189.960 149.063,187.015 147.832 C 184.934 146.963,184.383 145.053,185.848 143.787 L 187.000 142.792 204.156 142.812 C 215.998 142.826,221.571 142.971,222.148 143.279 M186.599 144.402 C 185.545 145.566,186.328 147.225,187.891 147.140 L 189.000 147.080 187.919 146.915 C 186.678 146.726,186.086 145.460,186.823 144.573 C 187.242 144.067,189.779 143.999,204.656 144.092 C 214.195 144.151,222.000 144.065,222.000 143.900 C 222.000 143.083,187.348 143.574,186.599 144.402 M222.454 145.496 L 222.400 146.791 205.700 146.900 L 189.000 147.009 205.713 147.105 C 223.756 147.208,223.097 147.284,222.686 145.129 C 222.551 144.419,222.496 144.506,222.454 145.496 M223.783 149.228 C 223.654 149.436,224.313 149.597,225.276 149.593 C 239.616 149.537,254.728 149.896,255.473 150.312 C 257.048 151.191,257.003 153.055,255.365 154.692 C 254.715 155.342,187.200 155.449,187.200 154.800 C 187.200 154.536,198.717 154.400,220.951 154.400 C 252.626 154.400,254.735 154.357,255.232 153.700 C 255.682 153.104,255.678 153.075,255.201 153.500 C 254.762 153.892,247.335 154.000,220.943 154.000 L 187.245 154.000 186.623 153.111 C 186.280 152.622,186.000 152.383,186.000 152.580 C 186.000 152.776,186.298 153.266,186.662 153.669 C 187.213 154.277,187.225 154.400,186.737 154.400 C 186.414 154.400,185.759 153.871,185.281 153.223 L 184.411 152.047 185.571 151.221 C 186.209 150.766,186.792 150.568,186.866 150.780 C 186.949 151.019,187.760 151.038,189.000 150.830 L 191.000 150.494 189.076 150.447 C 188.018 150.421,187.254 150.237,187.377 150.037 C 187.505 149.830,194.934 149.665,204.701 149.652 C 214.105 149.639,222.115 149.623,222.500 149.615 C 222.885 149.607,223.200 149.319,223.200 148.976 C 223.200 148.633,223.383 148.466,223.607 148.604 C 223.830 148.742,223.909 149.023,223.783 149.228 M252.082 150.818 C 253.557 150.990,254.997 151.271,255.282 151.442 C 255.668 151.674,255.660 151.581,255.251 151.077 C 254.826 150.553,254.103 150.412,252.051 150.453 L 249.400 150.505 252.082 150.818 M255.408 157.216 C 256.877 157.981,257.271 160.286,256.091 161.214 C 255.118 161.980,254.259 162.001,223.046 162.040 C 205.421 162.063,190.277 162.127,189.394 162.184 C 185.456 162.437,183.414 158.481,186.757 157.075 C 188.258 156.443,254.184 156.579,255.408 157.216 M186.243 158.633 C 185.881 159.575,185.949 160.400,186.387 160.400 C 186.601 160.400,186.670 160.128,186.543 159.795 C 186.415 159.462,186.533 158.922,186.804 158.595 C 187.091 158.250,187.127 158.000,186.892 158.000 C 186.668 158.000,186.376 158.285,186.243 158.633 M181.280 162.480 C 180.907 162.853,180.693 162.853,180.320 162.480 C 179.947 162.107,180.053 162.000,180.800 162.000 C 181.547 162.000,181.653 162.107,181.280 162.480 M234.500 184.557 C 235.702 185.469,235.072 188.800,233.699 188.800 C 233.471 188.800,233.190 189.048,233.074 189.351 C 232.906 189.788,232.443 189.826,230.836 189.534 C 229.716 189.330,219.691 189.218,208.405 189.283 C 197.182 189.347,188.000 189.254,188.000 189.076 C 188.000 188.898,187.849 188.846,187.665 188.960 C 187.141 189.283,185.589 188.023,185.177 186.940 C 184.788 185.917,185.487 184.775,186.800 184.286 C 188.224 183.756,233.786 184.015,234.500 184.557 M186.157 186.169 C 185.279 188.456,184.674 188.400,210.200 188.400 C 235.648 188.400,234.419 188.505,234.394 186.326 C 234.391 186.037,234.161 186.250,233.882 186.800 L 233.376 187.800 210.433 187.903 C 186.471 188.011,186.101 187.987,186.535 186.328 C 186.759 185.469,186.472 185.348,186.157 186.169 M239.680 187.280 C 239.307 187.653,239.200 187.547,239.200 186.800 C 239.200 186.053,239.307 185.947,239.680 186.320 C 240.053 186.693,240.053 186.907,239.680 187.280 M268.093 190.901 L 278.386 191.000 279.084 191.997 C 282.006 196.173,283.625 196.036,231.623 196.014 C 186.566 195.995,185.600 195.973,185.600 194.957 C 185.600 194.651,185.442 194.400,185.250 194.400 C 184.467 194.400,184.966 192.546,185.950 191.798 C 187.389 190.704,215.625 190.396,268.093 190.901 M186.768 192.300 C 186.318 192.896,186.322 192.925,186.799 192.500 C 187.817 191.592,277.837 191.789,278.368 192.700 C 278.592 193.085,278.781 193.211,278.788 192.980 C 278.828 191.608,278.545 191.600,232.569 191.600 C 189.922 191.600,187.267 191.641,186.768 192.300 M278.465 198.435 C 280.319 199.189,280.372 201.402,278.565 202.586 C 277.696 203.156,272.987 203.219,232.313 203.210 L 187.029 203.200 185.654 201.785 L 184.279 200.370 185.395 199.205 C 186.008 198.565,186.890 197.987,187.355 197.921 C 189.934 197.552,277.510 198.047,278.465 198.435 M291.200 203.200 C 291.200 203.420,290.930 203.600,290.600 203.600 C 290.270 203.600,290.000 203.420,290.000 203.200 C 290.000 202.980,290.270 202.800,290.600 202.800 C 290.930 202.800,291.200 202.980,291.200 203.200 M98.500 233.700 C 98.775 234.524,147.200 234.627,147.200 233.803 C 147.200 233.272,144.274 233.200,122.767 233.200 C 103.398 233.200,98.368 233.304,98.500 233.700 M110.500 235.500 C 117.265 235.561,128.335 235.561,135.100 235.500 C 141.865 235.438,136.330 235.388,122.800 235.388 C 109.270 235.388,103.735 235.438,110.500 235.500 " stroke="none" fill="#f9d372" fill-rule="evenodd"></path><path id="path3" d="M164.975 128.900 L 163.800 130.200 165.100 129.025 C 165.815 128.379,166.400 127.794,166.400 127.725 C 166.400 127.416,166.070 127.688,164.975 128.900 M169.400 129.765 C 167.953 130.408,166.696 131.776,166.059 133.400 C 165.705 134.302,165.615 146.346,165.694 181.829 L 165.800 229.059 166.785 230.496 C 168.790 233.422,163.125 233.200,235.754 233.200 L 301.082 233.200 302.441 232.292 C 305.403 230.313,305.199 234.095,305.199 181.194 C 305.200 127.820,305.448 131.993,302.158 130.107 L 300.600 129.213 235.600 129.222 C 182.314 129.230,170.384 129.327,169.400 129.765 M313.381 145.200 C 313.381 153.450,313.434 156.825,313.499 152.700 C 313.564 148.575,313.564 141.825,313.499 137.700 C 313.434 133.575,313.381 136.950,313.381 145.200 M299.900 134.211 L 300.800 134.845 300.800 172.974 C 300.800 204.580,300.707 211.179,300.258 211.552 C 299.859 211.883,282.539 211.976,235.158 211.901 L 170.600 211.800 170.497 173.200 C 170.403 138.285,170.454 134.555,171.030 134.131 C 172.149 133.308,298.730 133.387,299.900 134.211 M308.593 180.400 C 308.593 205.810,308.641 216.205,308.700 203.500 C 308.759 190.795,308.759 170.005,308.700 157.300 C 308.641 144.595,308.593 154.990,308.593 180.400 M97.385 154.097 C 97.279 154.374,97.239 163.825,97.296 175.099 L 97.400 195.598 118.465 195.721 C 140.188 195.848,140.800 195.895,140.800 197.420 C 140.800 199.197,140.761 199.200,118.371 199.200 L 97.200 199.200 97.200 214.000 L 97.200 228.800 122.802 228.800 L 148.404 228.800 148.302 191.300 L 148.200 153.800 122.889 153.697 C 102.852 153.615,97.537 153.699,97.385 154.097 M93.782 175.600 C 93.782 184.290,93.835 187.845,93.900 183.500 C 93.964 179.155,93.964 172.045,93.900 167.700 C 93.835 163.355,93.782 166.910,93.782 175.600 M144.567 162.643 C 145.390 162.958,145.533 180.307,144.720 181.120 C 144.211 181.629,101.933 181.856,100.633 181.357 C 99.974 181.104,99.625 163.308,100.267 162.667 C 100.600 162.333,143.701 162.310,144.567 162.643 M141.701 168.600 C 141.705 169.480,141.787 169.793,141.883 169.295 C 141.979 168.798,141.975 168.078,141.875 167.695 C 141.775 167.313,141.696 167.720,141.701 168.600 M313.862 169.300 C 313.964 169.465,314.476 169.600,315.000 169.600 C 315.524 169.600,316.036 169.465,316.138 169.300 C 316.240 169.135,315.728 169.000,315.000 169.000 C 314.272 169.000,313.760 169.135,313.862 169.300 M93.701 197.400 C 93.705 198.280,93.787 198.593,93.883 198.095 C 93.979 197.598,93.975 196.878,93.875 196.495 C 93.775 196.113,93.696 196.520,93.701 197.400 M93.785 218.800 C 93.785 229.030,93.836 233.215,93.900 228.100 C 93.963 222.985,93.963 214.615,93.900 209.500 C 93.836 204.385,93.785 208.570,93.785 218.800 M125.720 213.051 C 131.799 216.141,130.413 224.565,123.566 226.144 C 121.315 226.663,117.716 224.772,116.634 222.502 C 113.763 216.481,119.904 210.094,125.720 213.051 M120.255 216.655 C 118.356 218.553,119.231 222.145,121.705 222.609 C 125.873 223.391,128.064 218.094,124.364 216.181 C 122.705 215.324,121.440 215.469,120.255 216.655 M238.900 223.599 C 241.628 226.609,239.576 231.000,235.442 231.000 C 232.317 231.000,231.052 229.754,231.021 226.645 C 230.976 222.057,235.809 220.188,238.900 223.599 M173.705 236.687 C 174.314 236.779,175.214 236.777,175.705 236.682 C 176.197 236.587,175.700 236.511,174.600 236.514 C 173.500 236.517,173.097 236.595,173.705 236.687 M180.300 236.682 C 180.795 236.778,181.605 236.778,182.100 236.682 C 182.595 236.587,182.190 236.509,181.200 236.509 C 180.210 236.509,179.805 236.587,180.300 236.682 M186.300 236.697 C 187.895 236.773,190.505 236.773,192.100 236.697 C 193.695 236.621,192.390 236.559,189.200 236.559 C 186.010 236.559,184.705 236.621,186.300 236.697 M210.700 236.682 C 211.195 236.778,212.005 236.778,212.500 236.682 C 212.995 236.587,212.590 236.509,211.600 236.509 C 210.610 236.509,210.205 236.587,210.700 236.682 M256.105 236.687 C 256.714 236.779,257.614 236.777,258.105 236.682 C 258.597 236.587,258.100 236.511,257.000 236.514 C 255.900 236.517,255.497 236.595,256.105 236.687 M218.859 242.504 C 218.121 245.637,217.370 248.650,217.189 249.200 C 216.538 251.186,214.758 258.891,214.914 259.047 C 215.002 259.135,224.347 259.161,235.681 259.104 L 256.288 259.000 253.741 249.600 C 252.340 244.430,250.976 239.435,250.710 238.500 L 250.225 236.800 235.213 236.804 L 220.200 236.808 218.859 242.504 M96.914 240.600 C 96.917 241.700,96.995 242.103,97.087 241.495 C 97.179 240.886,97.177 239.986,97.082 239.495 C 96.987 239.003,96.911 239.500,96.914 240.600 M93.774 250.000 C 93.774 255.610,93.830 257.905,93.899 255.100 C 93.968 252.295,93.968 247.705,93.899 244.900 C 93.830 242.095,93.774 244.390,93.774 250.000 M96.940 246.800 C 96.940 248.670,97.009 249.435,97.093 248.500 C 97.177 247.565,97.177 246.035,97.093 245.100 C 97.009 244.165,96.940 244.930,96.940 246.800 M96.800 252.976 C 96.800 253.513,96.947 254.044,97.128 254.155 C 97.308 254.267,97.377 253.827,97.282 253.179 C 97.072 251.749,96.800 251.635,96.800 252.976 M97.283 260.700 C 97.347 262.405,97.535 263.755,97.700 263.700 C 97.865 263.645,109.340 263.600,123.200 263.600 L 148.400 263.600 148.400 260.600 L 148.400 257.600 122.783 257.600 L 97.166 257.600 97.283 260.700 M93.728 263.200 C 93.728 264.630,93.801 265.215,93.889 264.500 C 93.978 263.785,93.978 262.615,93.889 261.900 C 93.801 261.185,93.728 261.770,93.728 263.200 M280.509 263.600 C 280.509 264.590,280.587 264.995,280.682 264.500 C 280.778 264.005,280.778 263.195,280.682 262.700 C 280.587 262.205,280.509 262.610,280.509 263.600 M231.475 262.702 L 193.550 262.804 193.675 264.007 L 193.800 265.209 235.326 265.212 C 279.958 265.215,277.584 265.294,277.300 263.810 C 277.040 262.452,281.792 262.567,231.475 262.702 M108.729 267.100 C 116.500 267.161,129.100 267.161,136.729 267.100 C 144.358 267.039,138.000 266.989,122.600 266.989 C 107.200 266.989,100.958 267.039,108.729 267.100 M213.300 268.700 C 225.345 268.759,245.055 268.759,257.100 268.700 C 269.145 268.641,259.290 268.593,235.200 268.593 C 211.110 268.593,201.255 268.641,213.300 268.700 M128.500 273.500 C 149.345 273.557,183.455 273.557,204.300 273.500 C 225.145 273.443,208.090 273.396,166.400 273.396 C 124.710 273.396,107.655 273.443,128.500 273.500 M103.927 276.700 C 108.837 276.763,116.757 276.763,121.527 276.700 C 126.297 276.636,122.280 276.584,112.600 276.584 C 102.920 276.584,99.017 276.636,103.927 276.700 M194.900 276.700 C 203.205 276.760,216.795 276.760,225.100 276.700 C 233.405 276.639,226.610 276.590,210.000 276.590 C 193.390 276.590,186.595 276.639,194.900 276.700 " stroke="none" fill="#4cc4d1" fill-rule="evenodd"></path><path id="path4" d="M290.124 118.299 C 293.162 118.367,298.022 118.367,300.924 118.299 C 303.826 118.231,301.340 118.175,295.400 118.175 C 289.460 118.175,287.086 118.231,290.124 118.299 M287.500 121.899 C 289.975 121.969,294.025 121.969,296.500 121.899 C 298.975 121.828,296.950 121.771,292.000 121.771 C 287.050 121.771,285.025 121.828,287.500 121.899 M202.100 125.900 C 219.205 125.958,247.195 125.958,264.300 125.900 C 281.405 125.842,267.410 125.795,233.200 125.795 C 198.990 125.795,184.995 125.842,202.100 125.900 M296.707 125.890 C 297.426 125.979,298.506 125.977,299.107 125.886 C 299.708 125.795,299.120 125.722,297.800 125.724 C 296.480 125.726,295.988 125.801,296.707 125.890 M316.585 148.000 C 316.585 158.450,316.636 162.725,316.700 157.500 C 316.763 152.275,316.763 143.725,316.700 138.500 C 316.636 133.275,316.585 137.550,316.585 148.000 M173.904 172.833 C 173.847 192.432,173.876 208.542,173.968 208.635 C 174.060 208.727,201.825 208.800,235.668 208.796 L 297.200 208.790 297.200 172.995 L 297.200 137.200 235.604 137.200 L 174.009 137.200 173.904 172.833 M295.087 138.251 L 296.374 138.484 296.393 172.593 C 296.404 191.353,296.301 206.994,296.164 207.351 C 295.820 208.246,175.599 208.363,174.857 207.469 C 174.309 206.808,174.295 140.512,174.843 140.173 C 175.040 140.052,175.200 139.618,175.200 139.210 C 175.200 138.801,175.425 138.378,175.700 138.269 C 176.413 137.987,293.535 137.969,295.087 138.251 M222.075 140.425 C 222.171 140.714,222.486 141.029,222.775 141.125 C 223.075 141.225,223.225 141.075,223.125 140.775 C 223.029 140.486,222.714 140.171,222.425 140.075 C 222.125 139.975,221.975 140.125,222.075 140.425 M224.105 140.676 C 224.477 141.048,224.915 141.218,225.079 141.054 C 225.243 140.891,225.112 140.589,224.788 140.384 C 223.815 139.769,223.382 139.953,224.105 140.676 M197.926 142.300 C 201.955 142.365,208.435 142.365,212.326 142.299 C 216.217 142.234,212.920 142.180,205.000 142.181 C 197.080 142.181,193.897 142.234,197.926 142.300 M185.848 143.787 C 184.383 145.053,184.934 146.963,187.015 147.832 C 189.960 149.063,222.398 148.459,223.245 147.157 C 223.956 146.064,224.080 144.822,223.532 144.275 C 222.146 142.889,221.397 142.832,204.156 142.812 L 187.000 142.792 185.848 143.787 M222.255 144.198 C 222.584 144.527,222.796 145.292,222.727 145.898 L 222.600 147.000 204.693 147.104 L 186.787 147.208 186.330 146.206 C 185.952 145.376,185.998 145.065,186.599 144.402 C 187.577 143.320,221.185 143.128,222.255 144.198 M223.200 148.976 C 223.200 149.319,222.885 149.607,222.500 149.615 C 222.115 149.623,214.105 149.639,204.701 149.652 C 195.296 149.665,187.515 149.813,187.410 149.983 C 186.979 150.681,194.924 150.850,224.035 150.764 C 256.319 150.667,255.600 150.631,255.600 152.344 C 255.600 154.487,257.068 154.400,220.982 154.400 C 183.850 154.400,185.071 154.483,186.368 152.060 C 187.124 150.646,186.836 150.320,185.605 151.196 L 184.411 152.047 185.281 153.223 C 185.759 153.871,186.387 154.400,186.675 154.400 C 186.964 154.400,187.200 154.580,187.200 154.800 C 187.200 155.449,254.715 155.342,255.365 154.692 C 257.003 153.055,257.048 151.191,255.473 150.312 C 254.728 149.896,239.616 149.537,225.276 149.593 C 224.313 149.597,223.654 149.436,223.783 149.228 C 223.909 149.023,223.830 148.742,223.607 148.604 C 223.383 148.466,223.200 148.633,223.200 148.976 M151.795 208.800 C 151.795 240.150,151.842 252.975,151.900 237.300 C 151.958 221.625,151.958 195.975,151.900 180.300 C 151.842 164.625,151.795 177.450,151.795 208.800 M93.737 157.000 C 93.739 158.760,93.809 159.430,93.893 158.489 C 93.978 157.549,93.977 156.109,93.891 155.289 C 93.805 154.470,93.736 155.240,93.737 157.000 M186.757 157.075 C 183.414 158.481,185.456 162.437,189.394 162.184 C 190.277 162.127,205.421 162.063,223.046 162.040 C 254.259 162.001,255.118 161.980,256.091 161.214 C 257.271 160.286,256.877 157.981,255.408 157.216 C 254.184 156.579,188.258 156.443,186.757 157.075 M255.518 158.546 C 255.937 158.965,255.944 159.285,255.557 160.135 L 255.072 161.200 221.107 161.200 C 191.158 161.200,187.071 161.128,186.531 160.588 C 185.774 159.832,186.123 158.112,187.070 157.929 C 189.411 157.477,255.040 158.069,255.518 158.546 M313.328 162.400 C 313.328 163.830,313.401 164.415,313.489 163.700 C 313.578 162.985,313.578 161.815,313.489 161.100 C 313.401 160.385,313.328 160.970,313.328 162.400 M180.320 162.480 C 180.693 162.853,180.907 162.853,181.280 162.480 C 181.653 162.107,181.547 162.000,180.800 162.000 C 180.053 162.000,179.947 162.107,180.320 162.480 M141.683 173.896 L 141.600 177.992 122.300 178.100 L 103.000 178.208 122.313 178.304 C 138.044 178.382,141.663 178.302,141.828 177.870 C 141.940 177.578,141.972 175.643,141.899 173.570 L 141.766 169.800 141.683 173.896 M186.800 184.286 C 185.487 184.775,184.788 185.917,185.177 186.940 C 185.589 188.023,187.141 189.283,187.665 188.960 C 187.849 188.846,188.000 188.898,188.000 189.076 C 188.000 189.254,197.182 189.347,208.405 189.283 C 219.691 189.218,229.716 189.330,230.836 189.534 C 232.443 189.826,232.906 189.788,233.074 189.351 C 233.190 189.048,233.471 188.800,233.699 188.800 C 235.072 188.800,235.702 185.469,234.500 184.557 C 233.786 184.015,188.224 183.756,186.800 184.286 M234.050 185.749 C 234.364 186.439,234.358 186.932,234.027 187.549 L 233.572 188.400 210.200 188.400 L 186.828 188.400 186.373 187.550 C 186.027 186.903,186.040 186.473,186.427 185.750 L 186.935 184.800 210.276 184.800 L 233.617 184.800 234.050 185.749 M239.200 186.800 C 239.200 187.547,239.307 187.653,239.680 187.280 C 240.053 186.907,240.053 186.693,239.680 186.320 C 239.307 185.947,239.200 186.053,239.200 186.800 M209.200 190.800 C 187.801 190.993,186.962 191.029,185.950 191.798 C 184.966 192.546,184.467 194.400,185.250 194.400 C 185.442 194.400,185.600 194.651,185.600 194.957 C 185.600 195.973,186.566 195.995,231.623 196.014 C 283.625 196.036,282.006 196.173,279.084 191.997 L 278.386 191.000 268.093 190.901 C 240.344 190.634,229.674 190.616,209.200 190.800 M93.728 193.600 C 93.728 195.030,93.801 195.615,93.889 194.900 C 93.978 194.185,93.978 193.015,93.889 192.300 C 93.801 191.585,93.728 192.170,93.728 193.600 M278.515 192.438 C 278.737 192.789,278.798 193.554,278.651 194.138 L 278.385 195.200 232.689 195.200 L 186.992 195.200 186.472 194.367 C 186.036 193.668,186.054 193.377,186.586 192.565 L 187.221 191.597 232.667 191.698 C 273.764 191.790,278.151 191.861,278.515 192.438 M187.355 197.921 C 186.890 197.987,186.008 198.565,185.395 199.205 L 184.279 200.370 185.654 201.785 L 187.029 203.200 232.313 203.210 C 272.987 203.219,277.696 203.156,278.565 202.586 C 280.372 201.402,280.319 199.189,278.465 198.435 C 277.510 198.047,189.934 197.552,187.355 197.921 M278.170 199.167 C 278.552 199.589,278.805 200.354,278.732 200.867 L 278.600 201.800 233.200 202.000 C 183.091 202.221,186.562 202.299,186.222 200.945 C 185.657 198.695,183.254 198.812,232.070 198.700 C 256.781 198.643,277.107 198.552,277.238 198.498 C 277.369 198.444,277.788 198.745,278.170 199.167 M290.000 203.200 C 290.000 203.420,290.270 203.600,290.600 203.600 C 290.930 203.600,291.200 203.420,291.200 203.200 C 291.200 202.980,290.930 202.800,290.600 202.800 C 290.270 202.800,290.000 202.980,290.000 203.200 M234.565 225.747 C 233.941 227.374,234.931 228.383,236.216 227.429 C 236.844 226.963,236.912 226.703,236.557 226.123 C 235.982 225.185,234.862 224.973,234.565 225.747 M97.277 233.608 L 97.400 235.223 122.800 235.220 L 148.200 235.217 148.200 233.709 L 148.200 232.200 122.677 232.097 L 97.154 231.994 97.277 233.608 M147.200 233.803 C 147.200 234.627,98.775 234.524,98.500 233.700 C 98.368 233.304,103.398 233.200,122.767 233.200 C 144.274 233.200,147.200 233.272,147.200 233.803 M177.100 236.682 C 177.595 236.778,178.405 236.778,178.900 236.682 C 179.395 236.587,178.990 236.509,178.000 236.509 C 177.010 236.509,176.605 236.587,177.100 236.682 M198.500 236.698 C 200.645 236.770,204.155 236.770,206.300 236.698 C 208.445 236.626,206.690 236.567,202.400 236.567 C 198.110 236.567,196.355 236.626,198.500 236.698 M214.105 236.687 C 214.714 236.779,215.614 236.777,216.105 236.682 C 216.597 236.587,216.100 236.511,215.000 236.514 C 213.900 236.517,213.497 236.595,214.105 236.687 M269.128 236.700 C 274.918 236.762,284.278 236.762,289.928 236.700 C 295.578 236.637,290.840 236.586,279.400 236.586 C 267.960 236.586,263.338 236.637,269.128 236.700 M93.701 238.600 C 93.705 239.480,93.787 239.793,93.883 239.295 C 93.979 238.798,93.975 238.078,93.875 237.695 C 93.775 237.313,93.696 237.720,93.701 238.600 M148.165 246.400 C 148.165 250.250,148.225 251.825,148.298 249.900 C 148.371 247.975,148.371 244.825,148.298 242.900 C 148.225 240.975,148.165 242.550,148.165 246.400 M91.907 276.690 C 92.626 276.779,93.706 276.777,94.307 276.686 C 94.908 276.595,94.320 276.522,93.000 276.524 C 91.680 276.526,91.188 276.601,91.907 276.690 M141.300 276.700 C 147.625 276.762,157.975 276.762,164.300 276.700 C 170.625 276.638,165.450 276.587,152.800 276.587 C 140.150 276.587,134.975 276.638,141.300 276.700 M177.305 276.687 C 177.914 276.779,178.814 276.777,179.305 276.682 C 179.797 276.587,179.300 276.511,178.200 276.514 C 177.100 276.517,176.697 276.595,177.305 276.687 M97.329 278.300 C 104.330 278.361,115.670 278.361,122.529 278.300 C 129.388 278.238,123.660 278.188,109.800 278.188 C 95.940 278.188,90.328 278.239,97.329 278.300 M194.670 278.300 C 203.289 278.360,217.509 278.360,226.270 278.300 C 235.032 278.240,227.980 278.191,210.600 278.190 C 193.220 278.190,186.052 278.240,194.670 278.300 M253.728 278.300 C 259.408 278.362,268.588 278.362,274.128 278.300 C 279.668 278.237,275.020 278.186,263.800 278.186 C 252.580 278.186,248.048 278.237,253.728 278.300 M297.720 278.298 C 299.655 278.372,302.715 278.371,304.520 278.297 C 306.324 278.223,304.740 278.163,301.000 278.164 C 297.260 278.164,295.784 278.225,297.720 278.298 " stroke="none" fill="#f6de8d" fill-rule="evenodd"></path></g></svg>